<?xml version="1.0" encoding="utf-8"?>
<!-- Generator: Adobe Illustrator 23.0.1, SVG Export Plug-In . SVG Version: 6.00 Build 0)  -->
<svg version="1.1" id="Layer_1" xmlns="http://www.w3.org/2000/svg" xmlns:xlink="http://www.w3.org/1999/xlink" x="0px" y="0px"
	 viewBox="0 0 739.5 741" style="enable-background:new 0 0 739.5 741;" xml:space="preserve">
<style type="text/css">
	.st0{fill:#1B75BC;}
	.st1{fill:none;stroke:#000000;stroke-miterlimit:10;}
	.st2{fill:#20419A;}
	.st3{fill:#27AAE1;stroke:#000000;stroke-miterlimit:10;}
	.st4{fill:#FFFFFF;stroke:#000000;stroke-width:3;stroke-miterlimit:10;}
	.st5{clip-path:url(#SVGID_2_);}
	.st6{clip-path:url(#SVGID_4_);}
	.st7{clip-path:url(#SVGID_4_);fill:#FFFFFF;}
	.st8{fill:#FFFFFF;stroke:#FFFFFF;stroke-miterlimit:10;}
	.st9{font-family:'MyriadPro-Regular';}
	.st10{font-size:36.8362px;}
</style>
<g>
	<circle class="st0" cx="369" cy="367.5" r="360"/>
	<circle class="st1" cx="369" cy="367.5" r="360"/>
	<circle class="st2" cx="369" cy="367.5" r="360"/>
</g>
<circle class="st3" cx="369" cy="367.5" r="227.17"/>
<g>
	<g>
		<path class="st4" d="M178.62,161.66c-6.45,6.1-12.67,12.57-18.63,19.42c-0.05,0.56-0.09,1.12-0.14,1.69
			c3.4,2.95,6.8,5.9,10.2,8.85c3.11,0.99,6.2,2.02,9.26,3.09c-6.74,7.59-13.12,15.69-19.1,24.31c-1.58-2.4-3.14-4.82-4.67-7.27
			c-14.65-10.46-29.3-20.92-43.95-31.38c-2.94-0.47-5.9-0.9-8.86-1.3c13.56-19.53,28.73-36.99,45.19-52.4
			c7.87-1.43,15.66-2.49,23.34-3.2c4.13,5.03,8.25,10.06,12.38,15.09C181.61,146.27,179.94,153.98,178.62,161.66z M156.1,149.35
			c-1.63-0.26-3.26-0.51-4.9-0.75c-1.86,0.94-3.71,1.9-5.57,2.89c-2.91,3.08-5.78,6.24-8.59,9.47c-0.08,0.6-0.16,1.2-0.23,1.8
			c3.15,2.73,6.3,5.46,9.44,8.2c0.57-0.15,1.13-0.29,1.7-0.43c2.68-3.08,5.41-6.08,8.19-9.02c0.82-1.84,1.67-3.68,2.53-5.5
			c-0.28-1.62-0.55-3.24-0.8-4.87C157.28,150.54,156.69,149.94,156.1,149.35z"/>
		<path class="st4" d="M251.87,138.32c-6.04-5.33-12.3-10.5-18.76-15.49c-0.91,0.13-1.82,0.26-2.72,0.39
			c-2.04,1.17-4.08,2.37-6.09,3.59c-0.19,0.51-0.39,1.02-0.58,1.52c2.53,4.12,5.06,8.25,7.59,12.37c2.26,1.74,4.5,3.51,6.71,5.3
			c-8.09,4.83-15.95,10.16-23.55,15.98c-0.83-2.73-1.63-5.47-2.4-8.23c-10.75-14.46-21.51-28.91-32.26-43.37
			c-2.59-1.4-5.19-2.78-7.82-4.13c17.59-13.46,36.29-24.86,55.77-34.19c7.7,1.12,15.24,2.53,22.6,4.22
			c2.47,6.02,4.93,12.04,7.4,18.06c-2.57,4.29-4.99,8.61-7.28,12.95c5.4,4.51,10.62,9.14,15.67,13.9c3.27,2.07,6.47,4.2,9.61,6.38
			C267.64,130.73,259.67,134.31,251.87,138.32z M229.22,95.94c-1.44-0.76-2.89-1.51-4.34-2.25c-1.98,0.29-3.96,0.6-5.94,0.94
			c-3.53,1.95-7.03,3.98-10.49,6.09c-0.23,0.53-0.47,1.07-0.7,1.6c2.18,3.55,4.36,7.11,6.55,10.66c0.56,0.05,1.13,0.09,1.69,0.14
			c3.3-2,6.63-3.94,10-5.8c1.26-1.46,2.54-2.91,3.83-4.35c0.18-1.6,0.37-3.21,0.57-4.82C229.99,97.42,229.6,96.68,229.22,95.94z"/>
		<path class="st4" d="M285.54,124.01c0.04-2.83,0.12-5.67,0.22-8.52c-5.67-17.1-11.34-34.19-17.01-51.29
			c-1.98-2.16-3.99-4.3-6.02-6.43c11.42-3.9,23.02-7.14,34.73-9.73c-0.61,2.87-1.2,5.74-1.75,8.6c4.13,17.53,8.26,35.06,12.39,52.58
			c1.58,2.37,3.12,4.76,4.64,7.15C303.57,118.42,294.48,120.96,285.54,124.01z"/>
		<path class="st4" d="M397.97,49.78c-1.97,20.58-3.93,41.15-5.9,61.73c-5.14-0.48-10.3-0.81-15.46-0.99
			c-7.99-12.61-17.22-24.85-27.65-36.53c-0.98-1.61-1.98-3.21-3-4.8c0.35,1.65,0.69,3.29,1.03,4.94c0.7,9.64,1.4,19.28,2.1,28.93
			c1.18,2.59,2.32,5.19,3.44,7.79c-8.4,0.51-16.78,1.43-25.1,2.76c0.52-2.78,1.07-5.57,1.65-8.35c-2.68-17.8-5.37-35.61-8.05-53.41
			c-1.81-2.43-3.66-4.84-5.54-7.24c10.38-1.69,20.83-2.87,31.3-3.55c9.17,9.26,17.58,18.91,25.21,28.84
			c0.86,1.68,1.71,3.36,2.55,5.05c-0.18-1.67-0.36-3.34-0.55-5.01c0.15-7.17,0.29-14.33,0.44-21.5c-1.14-2.69-2.3-5.37-3.5-8.05
			c10.49,0.09,20.99,0.69,31.43,1.8C400.87,44.7,399.41,47.24,397.97,49.78z"/>
		<path class="st4" d="M472.27,74.94c-3.43-1.23-6.88-2.4-10.35-3.5c-0.55,0.18-1.09,0.35-1.64,0.53
			c-4.23,13.36-8.46,26.71-12.69,40.07c0.28,3.76,0.51,7.51,0.68,11.26c-9.7-3.21-19.56-5.83-29.52-7.84
			c2.02-3.16,4.09-6.31,6.21-9.43c3.03-13.67,6.06-27.35,9.08-41.02c-0.38-0.42-0.76-0.85-1.15-1.27c-3.54-0.76-7.1-1.45-10.67-2.09
			c-4.96,0.31-9.88,0.73-14.77,1.28c3.92-6.22,8.03-12.36,12.33-18.42c21.49,3.44,42.68,9.05,63.22,16.81
			c0.72,7.4,1.23,14.78,1.54,22.13C480.55,80.51,476.46,77.68,472.27,74.94z"/>
		<path class="st4" d="M515.31,157.4c-14.03-10.06-28.89-18.51-44.32-25.34c1.97-2.05,3.97-4.07,6-6.08
			c7.52-16.37,15.03-32.75,22.55-49.12c0.01-2.93,0-5.86-0.05-8.8c19.02,8.42,37.37,18.77,54.73,31.04
			c-1.05,7.02-2.27,13.98-3.66,20.87c-2.76-3.33-5.6-6.61-8.52-9.84c-6.8-4.69-13.76-9.07-20.85-13.14c-0.5,0.1-0.99,0.2-1.49,0.3
			c-1.16,2.03-2.31,4.06-3.47,6.09c0.24,0.52,0.47,1.04,0.71,1.56c2.6,1.5,5.18,3.04,7.74,4.62c3.39,1.12,6.79,2.3,10.18,3.56
			c-3.89,5.83-7.77,11.66-11.66,17.49c-2.26-2.51-4.57-4.99-6.93-7.42c-2.42-1.5-4.87-2.95-7.33-4.37
			c-0.55,0.07-1.09,0.14-1.63,0.22c-1.57,2.75-3.14,5.51-4.71,8.26c0.3,0.75,0.6,1.49,0.89,2.24c6.08,3.52,12.05,7.3,17.89,11.33
			c4.31,1.56,8.62,3.25,12.92,5.08C527.81,149.58,521.48,153.41,515.31,157.4z"/>
		<path class="st4" d="M565.54,205.27c-11.38-14.3-23.94-26.98-37.43-38.04c2.46-1.43,4.95-2.84,7.45-4.22
			c11.56-13.82,23.12-27.64,34.67-41.46c0.76-2.85,1.48-5.72,2.18-8.6c17.22,14.13,33.26,30.32,47.78,48.57
			c1.03,8.79,1.7,17.54,2.02,26.22c-11.52,7.96-23.04,15.92-34.56,23.87C580.23,209.07,572.85,206.96,565.54,205.27z M596.58,169
			c0.47-2.02,0.93-4.06,1.36-6.1c-1.01-2.44-2.05-4.87-3.13-7.29c-2.2-2.41-4.42-4.79-6.68-7.11c-0.59-0.13-1.17-0.25-1.76-0.37
			c-8.43,8.31-16.86,16.62-25.3,24.93c0.1,0.82,0.2,1.64,0.3,2.46c1.82,1.89,3.62,3.81,5.4,5.76c2.09,1.06,4.19,2.17,6.28,3.31
			c1.99-0.25,3.98-0.48,5.99-0.69C584.9,178.93,590.74,173.96,596.58,169z"/>
	</g>
</g>
<g>
	<g>
		<path class="st4" d="M160.43,615.2c-15.75-14.08-30.38-30.03-43.6-47.85c2.95-0.5,5.88-1.04,8.79-1.61
			c14.31-10.92,28.63-21.84,42.94-32.75c1.46-2.48,2.95-4.94,4.47-7.37c6.28,8.46,12.96,16.37,20,23.75
			c-3.01,1.19-6.04,2.35-9.1,3.46c-10.37,9.66-20.73,19.32-31.1,28.98c0.14,0.89,0.28,1.77,0.43,2.66
			c4.76,5.07,9.66,9.92,14.69,14.58c4.49,2.56,9,4.98,13.53,7.24C174.6,609.45,167.59,612.43,160.43,615.2z"/>
		<path class="st4" d="M228.45,661.46c-13.76-6.9-27.1-14.86-39.9-23.89c-2.87-7.33-5.43-14.7-7.68-22.08
			c9.18-11.45,18.36-22.91,27.54-34.36c6.95,0.03,13.77-0.27,20.44-0.87c9.97,7.03,20.35,13.23,31.06,18.6
			c2.54,6.13,5.38,12.23,8.51,18.27c-5.78,13.49-11.56,26.98-17.33,40.48C243.72,659.19,236.17,660.48,228.45,661.46z M242.42,614
			c-0.1-1.57-0.19-3.15-0.27-4.72c-1.13-1.39-2.24-2.79-3.33-4.2c-1.79-1.04-3.56-2.1-5.33-3.19c-1.76-0.3-3.53-0.62-5.3-0.96
			c-1.43,0.67-2.86,1.33-4.3,1.98c-4.75,7.26-9.5,14.52-14.25,21.77c0.05,1.63,0.11,3.26,0.19,4.9c1.23,1.58,2.48,3.16,3.75,4.72
			c2.02,1.24,4.06,2.46,6.1,3.65c1.97,0.38,3.94,0.73,5.91,1.06c1.47-0.71,2.93-1.43,4.38-2.16
			C234.12,629.24,238.27,621.62,242.42,614z"/>
		<path class="st4" d="M322.14,691.22c-13.5-2.06-26.89-4.99-40.07-8.8c-5.29-6.38-10.23-12.9-14.82-19.53
			c4.78-13.17,9.57-26.33,14.35-39.5c6.92-2.47,13.61-5.22,20.05-8.22c9.89,2.85,19.94,5.08,30.06,6.67
			c1.48,7.15,3.17,14.3,5.08,21.42c-4.73-1.94-9.36-4-13.91-6.18c-2.71-0.49-5.42-1.03-8.12-1.61c-2.59,0.47-5.21,0.89-7.84,1.28
			c-1.4,1.38-2.81,2.74-4.24,4.09c-1.75,6.78-3.51,13.56-5.26,20.34c0.68,1.89,1.37,3.79,2.09,5.68c2.44,1.62,4.91,3.22,7.41,4.78
			c3.53,0.76,7.07,1.45,10.63,2.08c5.7-0.34,11.35-0.85,16.94-1.52C330.58,678.63,326.47,684.97,322.14,691.22z"/>
		<path class="st4" d="M392.8,694.1c0.3-2.69,0.58-5.39,0.85-8.08c-0.86-1.94-1.71-3.89-2.54-5.84c-0.49-0.3-0.97-0.6-1.46-0.91
			c-7.64,0.48-15.29,0.68-22.94,0.59c-0.47,0.33-0.94,0.65-1.41,0.98c-0.73,1.99-1.48,3.97-2.24,5.96c0.41,2.68,0.83,5.35,1.27,8.03
			c-11.2-0.21-22.38-1.01-33.51-2.4c2.27-2.4,4.49-4.83,6.66-7.28c8.59-17.69,16.01-35.73,22.23-53.99
			c-0.49-2.19-0.97-4.38-1.43-6.57c12.87,0.63,25.78,0.25,38.6-1.12c-0.33,2.21-0.68,4.43-1.04,6.64
			c7.29,17.87,15.76,35.44,25.38,52.6c2.32,2.32,4.68,4.61,7.09,6.88C416.57,691.76,404.7,693.26,392.8,694.1z M377.77,642.28
			c-0.24-1.16-0.47-2.32-0.7-3.48c-0.17,1.17-0.34,2.34-0.52,3.51c-1.86,7.21-3.89,14.4-6.08,21.57c0.44,0.33,0.88,0.67,1.32,1
			c3.97-0.02,7.93-0.12,11.89-0.3c0.42-0.35,0.85-0.71,1.27-1.06C382.39,656.47,379.99,649.39,377.77,642.28z"/>
		<path class="st4" d="M492.37,670.62c-18.68,7.77-37.97,13.68-57.59,17.72c0.65-2.86,1.27-5.72,1.86-8.57
			c-3.87-17.58-7.75-35.17-11.62-52.75c-1.53-2.4-3.04-4.8-4.51-7.22c9.31-1.92,18.53-4.37,27.6-7.37
			c-0.14,3.21-0.32,6.42-0.55,9.64c4.29,13.51,8.58,27.02,12.87,40.53c0.81,0.27,1.63,0.53,2.44,0.8c6.19-2,12.32-4.2,18.39-6.61
			c4.03-2.86,7.97-5.8,11.83-8.84C493.07,655.45,492.83,663.02,492.37,670.62z"/>
		<path class="st4" d="M559.86,632.04c-16.64,12.51-34.27,23.15-52.6,31.92c-0.04-2.94-0.11-5.87-0.21-8.8
			c-7.99-16.15-15.98-32.29-23.97-48.44c-2.08-1.95-4.13-3.92-6.15-5.91c8.7-4.16,17.2-8.87,25.44-14.11
			c0.62,3.16,1.2,6.34,1.74,9.54c7.43,12.07,14.87,24.15,22.3,36.22c0.86,0.05,1.73,0.11,2.6,0.15c5.63-3.53,11.17-7.26,16.6-11.2
			c3.31-3.84,6.52-7.76,9.62-11.76C556.98,617.02,558.52,624.49,559.86,632.04z"/>
		<path class="st4" d="M569.22,536.89c4.46,13.17,8.06,26.88,10.77,41.03c3.99,3.79,7.98,7.57,11.97,11.36
			c3.76,1.12,7.55,2.18,11.37,3.18c-9.23,10.13-18.96,19.5-29.13,28.12c-0.89-3.84-1.83-7.65-2.83-11.44
			c-3.4-3.89-6.8-7.79-10.2-11.68c-14.28-3.44-27.97-7.9-40.96-13.27c-3.38-0.83-6.72-1.73-10.01-2.7
			c7.91-5.48,15.57-11.48,22.92-17.99c1.84,1.48,3.7,2.96,5.56,4.43c5.63,1.67,11.37,3.17,17.21,4.49c1.01,0.42,2.02,0.83,3.04,1.24
			c-0.38-1.03-0.76-2.06-1.14-3.08c-1.14-5.9-2.44-11.72-3.91-17.45c-1.4-1.91-2.82-3.82-4.24-5.71c6.14-6.57,12-13.57,17.55-20.98
			C567.92,529.88,568.6,533.37,569.22,536.89z"/>
	</g>
</g>
<polygon class="st4" points="65.4,331.76 77.01,355.29 102.97,359.06 84.18,377.38 88.62,403.23 65.4,391.03 42.17,403.23 
	46.61,377.38 27.82,359.06 53.79,355.29 "/>
<g>
	<g>
		<defs>
			<rect id="SVGID_1_" x="168.4" y="247.58" width="399.75" height="239.85"/>
		</defs>
		<clipPath id="SVGID_2_">
			<use xlink:href="#SVGID_1_"  style="overflow:visible;"/>
		</clipPath>
		<g class="st5">
			<defs>
				<rect id="SVGID_3_" x="168.4" y="247.58" width="399.75" height="239.85"/>
			</defs>
			<clipPath id="SVGID_4_">
				<use xlink:href="#SVGID_3_"  style="overflow:visible;"/>
			</clipPath>
			<path class="st6" d="M328.96,273.89c2.11,2.33,1.11,5.89,0.78,8.55c-3,2.66-6.88,2.44-10.33,1.44c-0.33,1.33,0.33,4.55-2,5
				c-2.22,2.55-5.77,3.89-8.66,5c-1.44,0.44-3.33,1.33-4,2.78c1,1.67,1.22,4,0.89,5.89c-1.78,4.44-7.66,6.11-8.77,10.88
				c-1,2.11-1.89,4.89-2.55,7.11c-0.56,0.44-1.11,1.22-1.11,1.89c-0.78,0.33-0.44,1.55-0.44,2.33c0.89-1.44,2-3.55,3.66-4.77
				c0.33-1,1.67-0.89,2.33-2l0.11,0.11c0.89-0.56,1.44-1.67,2.55-1.89c0.89-1,2.11-1.67,3.44-2.44c2.44-0.56,4.66-2,7-0.89
				c1,0.89,2,1.78,1.33,3.55c-0.56,0.44-0.67,1.44-1.33,2.11c-0.89,0.67-1.44,2-2.66,2.11c-1.89,1.67-3.33,3.22-3.44,5.77l0.11,0.11
				c3.55-0.89,6.77-3.78,9.33-6.55c2.22-1.11,4.55-2.33,7.11-1.11c4.44,1.44,8.77,3.66,14.1,3.11c3,1,5.89,2.89,7.44,5.33
				c0.22,0.44,0.89-0.11,0.89,0.67c2,5.55,4.11,11.55,7.99,15.99c3,2.55,5.89,6.55,10.66,5.33c1.11-0.56,3.33,0.22,4.11-1.22
				c1.55-0.67,2.89-2.55,4.66-3.22c2.55-0.89,6.33-0.67,8.33,1.55c1.33,2.11,3.22,3.33,5.77,4.11c1.55-2.22,4.11-3,7.22-3.11
				c1.22,0.11,1.22,2.11,2.55,1.78c0.78,0.89,2.11,2.89,3.33,1.55c0.22-0.44,0.89-1.11,0.78-1.67c0.78-0.44,0.89-1.89,2-2.22
				c0.56-1.89,2-2.66,3.44-4c2.55-2.33,5.55-4.33,7.77-7c4-3.33,7.44-7,11.77-9.11c3.44-3.11,8.44-2,12.99-3
				c3.44,0,7.44-0.11,10.22-0.44c3.78-0.78,8.1-1.78,12.33-1.78c1.22-0.67,4.22,0.44,5.11-1.44c3-2.11,6.22-2.44,9.66-3.33
				c4.55-0.56,9.33-0.67,12.99-2.55c2.11-0.67,5-0.22,7.33,0.33l2,2.66v3.44c-2.11,2.22-2.11,5.11-4.33,7.11
				c0.56,2.22-0.78,4.22-0.11,6.33c2,2.33,5.11,1.11,7.66,2.11c2.89,3,4.77-2.11,7.44-2.22c1.22-0.33,2.89,0.22,3.78-0.56
				c2.22,0.67,3.44,1.89,4.44,3.89c1.22-0.11,0.56-1.78,1.67-1.78c0.67-1.33,2.78-3,4.33-4.66c2.11-1.44,5.33-0.56,7.77-1
				c0.33-0.67,0.78-0.78,1.22-1.11c2.33-3.22,6.11-4.66,10.55-4c1.89,1.11,5.33-0.22,5.88,2.67c0.67,0.78,1.33,2.44,0.67,3.44
				c-0.78,1-2.55,1.89-2.44,3.78c-0.45,1.11-0.22,3.11-0.67,4.11c-0.33,1.67-1,2.55-0.22,4.11c-0.33,1,0.33,1.89,0.89,2.89
				c-0.22,2.33,2.89,4.55,1.78,7.11c0.11,0.78-0.11,1.55-0.33,2.44c-1.44,1.55-4.22,1.89-6.33,2.22c1.44,1.33,3.22-0.56,5.22,0.44
				c0.33,0.44,1.44,0.33,2.22,0.44c4,1.78,4.66,6.11,8.44,8.22c1.55,1.11,3.44,3.22,5.77,3.55c1.11,0.67,1.22,1.44,2,2.22
				c-0.56,1.55,0.89,4-1.67,4.66c-1.78,0.89-1.55,4.77-4.55,4.11c-2.44,0.33-4.77-0.45-6.89-2l-3.66,0.11c-1,1.22-2,3.33-3.33,3.89
				c-1.89-0.33-3.66,0.78-5.22,0.56c-2.33,1-4.44,1.33-6.88,0.33c-3.44,0-5.89-1.55-8.55-3.55c-0.67-0.33-0.11-1.33-1-1.33
				c0.56-0.67-0.56-0.78-0.56-1.33c-0.89-0.22-1.67,0.11-2.55-0.56c-0.78,2.55-0.45,5.89-2.44,7.88c1.44,1.11,1.11,3.67,1,4.33
				c-1.67,2.11-4,3-6.77,3c-5.11,0.78-6.66-6.44-11.55-6.66c-2.78-1.67-5.89-3.33-9.44-3.33c-2,1.33-4.22,0.11-6.33,0.56
				c-1.11-0.89-2.55-0.89-3.22-2.22c-0.56,0-0.78-1-1.11-1.33c-1.11-1.11-2.11-0.89-3.44-1.33c-1.89,1.22-4,2.33-6,3
				c-4.77,2.89-6.22,8.99-10.88,11.55c-2.44,1.67-5.11,3-8,2.44v-0.11c-3.44-0.89-5.22,2.44-8.55,2.22c-4,0.11-7.55,0.56-10.77-0.89
				c-1.78,1.11-4.66,0.11-5.66,2.78c0.33,1.55,1,2.78,1.11,4.22c-0.67,2.22-0.11,5.11-2.55,6.55c-1.11,2-6.11,0.78-4.22,4.44
				c0.11,3.89-4.33,4.11-5.77,7.33c-2.55,3.11-1.55,7.11-2.44,11.1c-1.22,2.55-2.89,3.89-5.77,3.66l-1.11-0.33l0.11,0.44h-0.33
				c0.11-0.11,0.11-0.33,0-0.44c-1.11,0-1.55-0.89-2.55-1c-0.89-1.22-3-1.89-2.44-3.89c-2.66-5.44-2.89-12.44,0.11-18.43
				c2.22-3.33,6.33-4.33,8.44-7.55c0.89-0.67-0.22-1.55,0-2.44c-0.56-0.89-1.55,0.11-2-0.22c-0.78,0.89-1,2.44-2.22,3.22
				c-0.11,0.78-1.22,1.67-1.89,2c-0.67,0.11-0.89-0.22-1.33,0.22l-2.33-0.78c-1.33,1.89,0.22,4.44-1,6.22
				c-1.44,1.67-2.78,1.89-4.44,3.22c0.33,1.55-1.55,3.33-1.44,5c-1.22,1.44-2.44,2-4.11,2.11c-2.33-1.22-4.89-0.78-5.77-3.78
				c-0.33-1.56,0.44-3.55,0.56-5.22c-1.11,3.66-6.22,5-5.77,9.33c1.67,4.33,0.22,8.55-2.89,11.55c-2.11,3.78-4,7.77-5.44,12.1
				c-2.67,3.22-3.44,7-6.44,9.88c-2.22,3.78-3.66,6.55-5.44,10.77c0.56,2.33-1.67,4.11-2,6.33c-1.11,0.89-2.33,1.78-3.33,2.55
				c-1.11-0.11-2.33,0.67-3.33-0.33c-2.67,0-4.22-0.78-6-2.22c-2-3.89,2.33-8.55-0.11-11.77l-0.11-1.11h-0.22
				c-0.11-1.78,0.11-3.78,1.22-4.89c-0.11-1.33,2-1.67,1.22-3.33c-0.56-0.56-1.22,0.22-1.78,0.33c-1.11,0.45-2.11,1.56-3.55,2.44
				c-1.22-0.11-3,0-4.11-0.44c-1.22,0.44-2-0.56-2.78-0.89c0.22-0.56-0.44-1-0.67-1.11c-1.89-2.33-0.67-5.55,0-8.55
				c0.56-0.22,0-1.22,0.22-1.67c-0.33-3.11,2.33-4.22,1.33-7.44c0.44-1.67,0.11-2.44,0.22-4.33h0.22c-0.89-2.66-3.55-5.33-3.22-8.22
				c-0.67-0.33,0-0.67-0.44-1.11c-4.11-2.78-10.77-0.22-13.55-4.78c-1.33-1.89-1-5-0.33-6.88c-1.22-0.33,0.33-2.78-1.44-2.22
				c-0.89-0.56-2.55-1.22-3.44-2.33c-1.67,0.11-3.33,1.22-5.33,0.78c-0.44,1-1.44-0.33-1.89,0.67c-0.56,0-1.44-0.44-1.67,0.22
				c-1.55,0.22-3.55,0.44-4.55-0.67c-1.11-0.33-2.55-0.11-3.33-1.33l-0.11,0.22c-0.33-0.89-1.22-1.55-2-2c-1.89,1-3.78,3.33-6,3.11
				c-3.11,1.67-6-2.11-9.11-3.11c-2,0.22-4,0.67-6.22,0.44c-4.11-2.22-7.11-6.89-11.88-7.33c-1.55-0.44-3.55-0.67-5-0.78
				c-0.33-0.78-1.44,0-1.67-0.67c-3.78-0.33-6.55-1.22-10.33-1.89c-0.56-0.33-1.67-0.33-2.33-0.44c-0.78-1-2.11,0.33-3-0.67
				c-0.89-0.22-1.89,0.33-2.78-0.44c-1.67,0-4-0.44-5.44-1.11c-5.55-0.89-11.77-1.67-17.32-2.89c-0.89,0.56-1-0.33-1.89-0.44
				c-4.89-0.22-9.99-3.33-11.99-7.55c-0.44-1.56-0.11-3.44-0.22-5.33c-2.66-1.22-5.77-2.55-6.55-6c-0.89-1.11-2.66-0.44-3.55-1.55
				c-3,0.67-4.89-0.67-7.55-0.56c-1.22-1.67-4.55-1.55-4.11-4c-0.11-1.89,1.33-4,2.78-4.77c2.66-2.67,4.77-4.22,8.22-5.33l0.67-0.67
				c0.44-0.22,1.67-0.22,2.11-0.89c2.44-1.67,5.55-1.33,7.88-3.78c0.89-0.89,2.22-1.44,3.11-2.44c1.11,0.22,1.44-1.44,2.44-1.55
				c2.55-2.55,5.11-5.89,8.44-7.77c2-0.67,4.66-2.55,7.33-2.22c1.78-1.11,3.78-0.22,5.55-0.89l6.11-0.11
				c2.33-0.67,5.55-1.67,7.66-2.89c1.33-1.44,3.33-3.44,4.22-5.22c0.44-0.44,1.22-0.56,1.55-1.22c0-0.67,1.22-0.89,1.22-1.55
				c0.11-0.67,1.11,0.11,1-0.67c1.67-1.78,4.77-3.66,7.55-3.89c2.33-0.89,4.77-2.33,7.11-3.44c1.67-1.11,3.22-1.55,3.66-3.66
				c-0.33-1.11,1-1,0.56-2.11c3.89-5.44,8.66-8.11,13.99-12.33c1.67-1,2.78-2.22,4.44-3.11c0.89-2,2-3.55,2.44-6
				c0.44-0.44,1.55-1.11,1.22-2.11c0.67-0.11,0.89-1.22,1.22-1.67c1-1.22,2.22-1.89,3.44-2.44c1.11-1,2.44-1.67,3.89-2.44
				c6.22-2.89,11.1-7.77,19.21-7.77C320.08,269.23,325.3,270.45,328.96,273.89"/>
			<path class="st7" d="M324.52,276.78l0.22-0.11c0.67,0.67-1,2.33,0.33,3.22v0.22c-3-0.11-8.66-2.22-11.55,0.78
				c-0.33,0.44,0.11,1.22-0.44,1.33c-0.22,1.22,1.44,2,1.22,3.33c-2.66,3.11-7.22,3.78-10.55,5.22c-2.44,1.89-5.11,3.89-4.33,7.66
				c1.11,1.78,0.89,3.33-0.22,4.89c-1.78,1.67-3.78,3-5.77,4.77c0.22,0.89-1.55,1.55-1.11,2.44c-0.22,2-2.55,4.55-2.22,6.77
				c-1.33,2.44-3.55,5.11-2.89,8.66h-0.11c0.56,2.55-1.55,4-1.22,6.66c1.22,1.22,2.44,3.78,4.55,2.78c1.22,0.22,2-1.44,3-1.55
				c2.33-2.67,3.44-6,5.44-8.77c0.22-0.33,1.11-0.33,0.78-1.11l2.66-2.44c-0.11,0,0,0.89-0.56,0.67c-1.33,2.33-2.33,4.33-1.33,6.66
				c0,0.33,0,1,0.56,1.11l-0.11,0.11c3.22,3.78,8.55,0.33,12.1-1c2.22-1.33,4-3.78,6-5.33c1.78-0.33,3.11,1.33,4.89,1
				c0.67,1.11,2,1.11,3.11,1.33c2.89,1.89,7.66-0.56,10.1,2.11c4,1.89,3.11,6.66,5.33,9.33c1.78,3,1.67,5.55,4.44,7.66
				c1.55,2.66,3.78,5,6.55,6.88c1.78,1,3.33,2.67,6,2.44c1.11,0.22,2.33,0.11,3.55,0.11l3.89-0.56c0.89-0.11,2.44-0.56,3.44-1.33
				c1.11-0.78,2.78-1.89,3.89-3.22c1-0.33,1.44,0,2.22,0.33c1.33,2.22,3.11,3.44,5,4.55c1.33-0.22,1.89,1.22,3.44,0.89
				c0.56,0.78,1.44,0.22,2,0.67c1.44-0.67,4.11-1.33,4.66-3.22c1.67,1.22,3.11,4.11,6,3.78c3.22-1.22,7.33-2.11,8.33-6.11
				c3.11-4.11,6.88-6.33,10.66-10.22c4.55-4.11,7.89-7.88,13.1-10.22c5.66-2.44,12.77-0.11,18.77-2c4-0.44,7.99-1.11,11.88-1.44
				l0.44-0.44c2.89,0.11,6.33,0.78,8.44-2.11c2.78-1.22,5-2.22,7.77-2.55v-0.11c2.55-0.44,5.89,0,8.55-0.89
				c1.55-0.67,4.55-1.44,6.22-2c1.11,0.33,0.67,1.33,0.44,2.22c-1.11,1.33-0.67,4.11-3.11,4.44c-2,3-1.22,7-1.22,10.88
				c1.55,2.78,5.22,4.89,8.44,4.55c1.33-1,2.67,1.67,4.11,1.22c2.11,1.11,3.89-0.78,6.11-0.44c1-1.11,2.44-1.22,3.33-2.44
				c0.33-0.33,0.67-0.56,1.33-0.44c0.44,1.11,0,3.44,1.67,3.78c1.44,1.11,3.22,1.33,5,0.44c3.78-1.44,5.11-6.44,8.55-8.11
				c2.33-0.33,4.89,0.78,7-1.33c1.11,0.22,0.89-1,1.78-1.22c1.89-1.11,3.33-4.33,5.89-2.67c0.56-0.22,1.33-0.11,1.78,0.22
				c0.11-0.22,0.33,0,0.56-0.11l0.11,0.11c-1.33,0-1.67,1.78-2,2.55c0.11,0.11,0.11,0.44,0,0.44c-1.89,2.89-0.22,5.89-1.89,8.77
				c0.67,1.78,0,3.89,1.55,5.11c-0.56,2.78,2.78,3.44,1.67,6.44c-1.89,1.78-5.33-0.22-6.77,2.33c-1.33,0.33-1.89,1.78-2.22,2.89
				c-0.22,1.89,1.78,2.78,3,3.44c2.44,0.56,4.66,2,7.22,0.67c1.22,0.67,2.66-0.22,3.44,1.22c1.33,0.78,1.78,3,3,3.33
				c-0.22,0.67,0.67,0.56,0.67,0.78c2.66,2.55,5.44,4.89,8.55,5.77l-2.67,2.78c-2.22-2-5.88-1.55-9.22-2
				c-2.33,0.89-4.66,1.78-5.55,4.44c-1-0.56-1.89,0.67-2.89,0.22c-1.33,0.44-2.89,0.33-3.89,1.11c-2.33-1.22-5.77-0.67-6.55-3.33
				c-2-2.78-5.11-3.55-8.44-3.89c-2.44-0.22-4.22,0.11-5.66,1.89c-1,2,0.33,5.33-1.22,7.33c-0.67,1.67-1.44,3.44-0.67,5.44
				c-0.33,0.22-0.56,0.33-0.89,0.22c-3.33-4.88-8.66-5.44-12.66-8.33c-1.55-0.78-3.11-0.44-4.44-1.44
				c-2.44,0.11-5.11-0.44-6.88,0.67c-2.44,0.44-2.55-3-4.89-3.11c-1.78-0.67-4.11-2.78-6.22-1.89c-0.56-0.22-1-0.22-1.78,0.11
				c-1.78,0.22-3.33,2.33-5.11,2.66c-2.44,0.67-5,2.33-6.33,4.55l-0.11-0.11c-1.67,0.89-2.78,3.44-3.89,4.89
				c-0.67,0.11-0.89,0.78-1,1.33c-1.11,1.44-3.44,2.11-4.44,3.11c-0.89,0.78-1.55-0.44-2.55,0c-1.55,0.33-3.78,0.45-5,0.89
				c-1.55,0.44-3.11,2.33-4.66,1.33c-0.78,0.89-1.55,0-2.22,0.33c-1.33-0.56-2.33,0-3.55-0.56c-0.67,0.11-1.78-0.11-2.22-0.44
				c-2.33-0.33-4,0.67-6.22,0.56c-2.44,1.44-6.77,3.22-6.33,7.11c0.67,2.22,2.22,5.66,0,7.55c-2.22,1.55-6.44,2.44-5.88,5.77
				c-0.44,0.67,0.44,1.44,0,2.11c-3.55,3.78-7.33,6.55-7.22,12.21c-0.22,1.55,0,3.33-0.67,4.44c-1.67,0-1-2.44-2.11-3.44
				c-0.22-2.66-1.78-5-0.78-7.99c0.89-1.56,0.11-4.44,2.22-5.22c0.33-0.67,0.33-1,1.22-1.22c1.22-1.11,2.22-2.55,3.89-2.89
				c1.55-2.22,4.88-4.22,3.22-7.44c0-2.11-1.78-3.89-3.66-4.66c-2.11-1.22-3.89-0.22-6.22-0.33c-0.44,0.33-0.44,1.22-1.22,1
				c-0.56,1-2.11,1.44-2.11,3c-1.67-1.11-3.11-0.67-5-0.33c-2.55,1.11-1.89,4.44-3.33,6.44v3.22c-0.78,1.11-2.55,0.56-3.11,2.11
				c-1.33-0.11-0.22,1.33-1.11,1.55l-0.56,1c0.44-0.33,0.22-2.33,0.67-3.66c-0.33-2.22-1.67-4.77-4-6.22
				c-1.89,0.11-2.56-1.22-4.66-0.78c-0.33,0.11-0.33,0.89-0.89,0.78c-1.44,2-1.55,4.55-1.67,7.22c-1.55,2.33-3.67,3.78-5.44,6.33
				c0.67,0.89-0.89,1.44-0.11,2.33c-0.22,0.33-0.78,1.22-0.56,1.67c-0.44,2.44,1.67,5.33-0.67,7.11c-1.67,2.33-3.11,4.44-4.22,6.88
				c-1.11,3.22-2.44,6.22-4,9.44c-1.78,1.89-1.78,3.44-3.33,5.66c-2.33,3.55-5.44,6.66-6.44,11.33c-1.33,1.67-1.22,4.33-2.11,6.22
				c-0.78,0.44-0.56,2.11-1.78,1.78c-0.44,0.11-0.89-0.67-1.33-0.33c0.44-3,2.22-6.66,0-10.33c-0.11-2.22,2.22-4,2.33-6.33
				c-0.11-1.67-0.22-3.11-1-5c-0.56,0.22-1-0.78-1.44-0.89c-2.44-0.56-6-1.78-8.22,0.22v0.67l-2.78,1.33
				c-0.89-0.56-0.11-1.44-0.22-2.22c1.55-2,0.33-5.55,1.67-7.22c1.44-3.67,1.11-7.66,1.22-11.33c-1.44-0.78-0.33-3.11-2-4
				c-0.33-0.89-1.22-1.67-0.89-2.66c-0.44-1.44-1-3.22-2-4.66c-3-2.11-7.88-3.78-11.55-3.44c-0.44-0.56-1.22,0-1.55-0.67
				c-0.56-0.44-0.22-1.11-0.33-1.78c1.22-1.44,0.33-3.11,0.44-5c-0.78-3.44-4.77-4-7.33-6.55c-3.22-0.67-6.33-0.33-9.11,0.89
				c-1.33,0-3.55,0.67-4.89,0.56c-1.67,0-1.89-1.22-3.11-2c-2-2.11-5-2.22-7.55-1.33c-1.33,1.22-2.44,1.55-3.33,2.56
				c-3,0.33-4.77-3.11-7.88-3.22c-2.44,0.11-6,1.89-7.44-1.44h-0.44c-0.56-1.44-2.22-1.89-3.44-2.89
				c-6.33-3.55-14.99-3.55-21.43-5.66c-1.67,0.22-3.11-0.89-4.66-0.56c-2.11-1-4.89-0.67-7-1.33c-1.44-0.56-2.78-0.89-4.22-0.78
				c-1.11-0.56-2.22-0.44-3.22-0.89l-2.33-0.11v-0.22c-1.55-0.33-3.11-0.78-4.66-0.67v-0.11c-3.89-0.22-7.88-1-11.77-2.11
				c-1.55-1.22-4.44-1.78-4.77-4.22c0.67-1.33-0.89-2.22,0.11-3.22c-0.56-1.33-0.22-4.33-2.78-4.33c-0.33-0.44-0.89-0.67-1.44-0.67
				c-1.78-0.22-2.66-2.44-3.66-4c-0.56-1.89-2.55-1.78-4-2.89c-2.11-0.11-3.89-0.89-6.11-0.78c-1.11,0-1.89-0.56-3.22-0.56
				c-0.33-0.67,0.56-0.22,0.67-0.56c2.44-3,5.55-3.22,8.77-4.89c4.11-1.78,7.99-4,11.88-6.66c4.44-2.55,6.66-7.77,11.33-9.77
				c0.78,0.33,0.89-0.44,1.33-0.67c4.44-0.56,8.66-0.89,13.77-1c0.78-0.78,1.67-0.22,2.33-0.89c6.44-0.89,11.22-5.33,14.88-10.44
				c2.11-1.55,4.44-5.11,7.66-4.66c4.11-1.78,7.77-3.89,11.44-6c2-2.11,3.44-5,4.55-7.88c4.77-3.78,9.11-7.33,13.88-10.99
				c5.44-3,5.11-10.77,10.55-13.77c3.11-2,5.66-3.33,8.88-4.89c0.78-0.33,1.33-0.78,2-1.33c2.55-1.55,5.66-1.89,8.77-2.66
				C318.97,274.22,321.86,275,324.52,276.78"/>
			<polygon class="st7" points="388.48,418.47 388.7,417.91 388.7,418.47 			"/>
		</g>
	</g>
</g>
<text transform="matrix(1 0 0 1 606.7801 662.8655)" class="st8 st9 st10">©</text>
<polygon class="st4" points="89.47,239.5 101.08,263.03 127.05,266.8 108.26,285.11 112.69,310.97 89.47,298.76 66.25,310.97 
	70.68,285.11 51.9,266.8 77.86,263.03 "/>
<polygon class="st4" points="89.47,424.03 101.08,447.56 127.05,451.33 108.26,469.64 112.69,495.5 89.47,483.29 66.25,495.5 
	70.68,469.64 51.9,451.33 77.86,447.56 "/>
<polygon class="st4" points="663,331.76 674.61,355.29 700.57,359.06 681.79,377.38 686.22,403.23 663,391.03 639.78,403.23 
	644.21,377.38 625.43,359.06 651.39,355.29 "/>
<polygon class="st4" points="644.35,239.5 655.97,263.03 681.93,266.8 663.14,285.11 667.58,310.97 644.35,298.76 621.13,310.97 
	625.57,285.11 606.78,266.8 632.74,263.03 "/>
<polygon class="st4" points="644.35,424.03 655.97,447.56 681.93,451.33 663.14,469.64 667.58,495.5 644.35,483.29 621.13,495.5 
	625.57,469.64 606.78,451.33 632.74,447.56 "/>
</svg>
