<?xml version="1.0" encoding="utf-8"?>
<!-- Generator: Adobe Illustrator 27.2.0, SVG Export Plug-In . SVG Version: 6.00 Build 0)  -->
<svg version="1.1" id="Layer_1" xmlns="http://www.w3.org/2000/svg" xmlns:xlink="http://www.w3.org/1999/xlink" x="0px" y="0px"
	 viewBox="0 0 934 707" style="enable-background:new 0 0 934 707;" xml:space="preserve">
<style type="text/css">
	.st0{fill:#137DCB;}
	.st1{fill:#9B1518;}
	.st2{fill:#DD692E;}
	.st3{fill:#FFFFFF;}
	.st4{fill:#663300;}
</style>
<g>
	<path class="st0" d="M608.4,119.3c-3-0.2-6.1-0.3-9-0.4l-2.1-0.1l-2.4,0c-3.2,0-6.5-0.1-9.7,0.1c-18.1,0.4-32.9,2.7-45.3,7
		l-1.1,0.4c-1.4,0.5-2.6,0.9-3.8,1.4c-0.4,0.2-0.7,0.3-1.1,0.4c-0.5,0.2-1,0.4-1.4,0.6l-3.5,1.6l-3,1.6
		c13.7,4.2,53.1,15.6,102.6,21.9L608.4,119.3z"/>
	<path class="st0" d="M713.4,221.8c-40.7,0-79.8-6.7-112.2-14.9l9.5,23.5c18.7,4.1,37.5,7,55.6,7.5c59.8,1.8,74.7-6.9,78.9-17.4
		c-4.6,0.4-9.4,0.7-14.4,0.9C724.9,221.7,719.2,221.8,713.4,221.8z"/>
	<path class="st0" d="M500.1,156.1c-1.7,2.5-3.2,4.9-4.6,7.2c7.7,3.8,33.9,16.3,70.4,28.2c13,4.2,28.1,8.6,44.8,12.5l-9.6-25.5
		c-48.4-9.2-84.9-21.3-98.5-26C501.8,153.8,500.9,155,500.1,156.1z"/>
	<path class="st0" d="M113.2,549.2l6.6,41.2c1.1-1,2.4-2.3,4.2-3.9c4.3-3.9,11.4-10.1,21.1-17.4c16-12.1,41.1-29,70.5-41.1l7.2-56.2
		c-42.5,23.2-78.8,48.7-107.9,75.9C114.1,548.3,113.6,548.8,113.2,549.2z"/>
	<path class="st0" d="M519.3,136.1l-3,2.2l-0.9,0.8c-0.3,0.2-0.5,0.4-0.8,0.7c-0.4,0.3-0.7,0.6-1.1,0.9c-2.4,2.1-4.7,4.5-7.1,7.2
		c-0.2,0.2-0.4,0.4-0.5,0.7c16.8,5.8,61.2,20.1,117.9,29.1l-10.8-20.8c-4.7-0.7-9.2-1.4-13.5-2.2c-42.1-7.3-72.9-17.1-79.2-19.2
		L519.3,136.1z"/>
	<path class="st0" d="M214.1,388.7c-4.2,6.4-8.3,13.4-12.4,21.2c-2.1,3.9-5.3,7.1-9.2,9.2c0,19.7,13,38.2,33.7,47.6
		c17.5,7.9,35.5,6.7,47.8-3.2c-0.1-0.1-0.1-0.1-0.2-0.1C242.6,439.1,220.6,400.8,214.1,388.7z"/>
	<path class="st0" d="M471.3,211.9c-2.3,4.4-4.8,9.2-7.7,14.2c19.8,15.1,65.9,40.7,111.7,52.3l-3.5-26.5
		c-47.1-14.6-90.1-35.4-100.2-40.4C471.5,211.6,471.4,211.8,471.3,211.9z"/>
	<path class="st0" d="M484.1,185.3c23.8,11.3,70.9,31.9,120.6,43.7l-9.6-23.6c-11.3-3-21.7-6.1-31-9.1
		c-37.1-12.1-63.7-24.8-71.2-28.6C490.1,173.1,487.3,178.7,484.1,185.3z"/>
	<path class="st0" d="M477.4,199.5c-1.2,2.6-2.4,5.1-3.6,7.4c11.4,5.7,65.7,32,119.7,45.9l-6.4-23.3
		c-43.9-12.2-83.8-29.7-105.1-39.8L477.4,199.5z"/>
	<path class="st0" d="M120.8,596.5l0.8,4.9h61.2c2.9-2.8,13.3-12.2,25.3-14.5l6.8-53.2C164.1,555.2,126,590.8,120.8,596.5z"/>
	<path class="st0" d="M643.5,266.4c-20.8-1.1-44-6.3-66.5-12.9l3.5,26.2c8.9,2.1,17.8,3.5,26.4,4.3c32.5,2.8,51.4,0.8,59.4-6.4
		c3.1-2.7,4.7-6.2,5.2-11.4c-4.5,0.4-9.4,0.6-14.9,0.6C652.5,266.8,648.1,266.7,643.5,266.4z"/>
	<path class="st0" d="M710.3,241.8c-8,0.9-17.6,1.3-29,1.3c-4.7,0-9.8-0.1-15.2-0.2c-23.9-0.7-49.2-5.4-73.5-11.8l6.4,23.1
		c15.4,3.7,30.6,6.4,44.7,7.1c39.5,2.2,55.6-5.5,62.2-12.2C708.7,246.4,709.8,243.7,710.3,241.8z"/>
	<path class="st0" d="M456.7,237.2c-2.5,3.8-5.1,7.4-7.8,11c8.5,7.6,48.3,41.3,98.7,54.7v-27.8c-36.6-13.1-70-32.2-86.5-44.6
		C459.6,232.7,458.2,234.9,456.7,237.2z"/>
	<path class="st0" d="M89.5,260.7H66.7l2.1,13.2c4.9-4.2,10.9-7.6,16.3-10.7C86.6,262.3,88.1,261.5,89.5,260.7z"/>
	<path class="st0" d="M186.5,310.8c20.9-10.7,42.5-21.7,68.5-41.8v-8.3h-73.1c-7.4,13-21.9,20.1-40.1,28.9
		c-18.6,9-41.6,20.2-63.6,41.7l8.7,54.1C125.6,341.9,155.2,326.8,186.5,310.8z"/>
	<path class="st0" d="M48.8,216.8H276c2.8,0,5.1-2.3,5.1-5.1V205c0-2.8-2.3-5.1-5.1-5.1H48.8c-2.8,0-5.1,2.3-5.1,5.1v6.7
		C43.6,214.5,45.9,216.8,48.8,216.8z"/>
	<path class="st0" d="M175.9,260.7H98.3c-2.6,2.2-6.4,4.4-10.8,6.9c-6.1,3.5-13.1,7.4-17.8,12.3l7.3,45.5
		c21.8-20.5,44.2-31.4,62.4-40.2C155.7,277.3,168.8,270.9,175.9,260.7z"/>
	<path class="st0" d="M270.2,194.9c3.4-4.3,7-6.5,11-6.6c6.5-0.2,13.7,5.2,24.6,18.5c12.6,15.5,39.6,15.4,52.6,11.8
		c-15.3-11.7-19.5-28.7-21.7-37.3c-2.4-9.5-12-14.7-12.1-14.7c-1-0.5-1.5-1.6-1.3-2.6c0.2-1.1,1.1-1.9,2.1-2
		c1.7-0.2,41.4-4.8,83.3,58.7c0.1-0.1,0.2-0.2,0.3-0.3c2-2.9,4.2-6.1,6.2-9.5c3.8-6.3,7.6-13.2,11.5-21.2c2.6-5.2,5.1-10.5,7.7-16.1
		c1.2-2.5,2.3-5,3.5-7.5c2.1-4.5,4.4-9.1,6.2-12.5c2.1-4,4.5-8.4,7.1-12.8c1.8-3.1,3.9-6.3,6.1-9.6c-3-5.5-16.7-27.8-47.4-43
		c-0.6-0.3-1.1-0.9-1.3-1.6c-0.2-0.7-0.1-1.4,0.4-2c12.5-18.2,10.3-39,8.8-47.1c-11.5,7.9-28.9,17.2-50.8,21.3
		c-23.8,4.5-46.8,1.6-68.4-8.6c-45.7-21.7-95.5-10.5-124.4,5.6c-0.6,0.4-1.4,0.4-2.1,0.2c-0.7-0.2-1.2-0.8-1.5-1.4
		c-6.6-16.9-23.3-26.8-30.6-30.5c-1.3,17-21.3,30.7-62.3,43c-28.1,8.4-49.4,27.9-55.7,51c-6.5,23.9,3.1,50.6,27.7,77.1H270.2z"/>
	<path class="st0" d="M191.2,437.8c-41.2,10.8-80.6,50.5-86.8,56.8l7.8,48.6c28.9-26.8,64.6-52,106.3-74.9
		C205.6,461.1,196,450.2,191.2,437.8z"/>
	<path class="st0" d="M166.2,386.7c1-3.2,2.5-6.6,4.8-10.1c2.7-4.3,5.3-8.5,7.5-12l0.1-0.1l7.3-10.4l6.4-8.2c0.5-0.6,1-1.3,1.5-1.9
		l0.1-0.1l7.5-8.2c1.2-1.3,2.5-2.5,3.7-3.6c0.6-0.6,1.2-1.1,1.8-1.7c2.9-3,6.2-5.7,9.4-8.3c0.7-0.6,1.4-1.1,2.1-1.7l1.5-1.2
		c0.4-0.3,0.8-0.6,1.1-0.8c0.2-0.1,0.3-0.2,0.5-0.4l3.1-2.2c0.7-0.5,1.4-1,2-1.4c1.4-1,2.8-2,4.2-2.9l9.5-5.8
		c0.8-0.4,1.5-0.8,2.3-1.2l1.1-0.6c3.8-2.1,7.6-4,11.5-5.8v-23.1c-25,18.9-45.9,29.6-66.2,40c-31.6,16.1-61.4,31.4-100.9,76.5
		l7.4,45.9C105.4,427.4,135.9,398.4,166.2,386.7z"/>
	<polygon class="st0" points="153.8,685.6 170.9,685.6 195,638.4 133.3,638.4 	"/>
	<path class="st0" d="M116.4,606.4c-3.4,0-6.2,2.8-6.2,6.2v14.5c0,3.4,2.8,6.2,6.2,6.2h92c3.4,0,6.2-2.8,6.2-6.2v-14.5
		c0-3.4-2.8-6.2-6.2-6.2H116.4z"/>
	<path class="st0" d="M190.3,601.4h15.8l1.2-9.2C200.6,593.9,194.4,598.2,190.3,601.4z"/>
	<path class="st0" d="M187.6,421.1c-1.7,0.4-3.4,0.7-5.1,0.7c-3.6,0-7-0.9-10.1-2.8c-3.3-2-5.9-6.4-7.2-12.1
		c-0.6-2.7-1.4-7.8-0.4-14.1c-31.7,13.5-63.1,45.3-68.6,51.1l7.2,44.8c11.2-11.3,47.3-45.1,86.2-55.4
		C188.5,429.2,187.8,425.2,187.6,421.1z"/>
	<path class="st0" d="M294.9,244.2v-10.9c0-6.3-5.2-11.5-11.5-11.5H276H48.8h-5c-6.3,0-11.5,5.2-11.5,11.5v10.9
		c0,6.3,5.2,11.5,11.5,11.5h239.7C289.7,255.7,294.9,250.5,294.9,244.2z"/>
	<path class="st0" d="M591.3,344.9c-10.2,0-22.7-1.2-37.6-3.5c-16.7-2.6-31.7-7.5-44.9-13.6l-3,24.2c13.5,6.1,27.9,11,42.8,14.4
		c26.1,6,43.9,5,53-3.1c5-4.4,7.4-11.1,7-19.9C603.9,344.3,598.1,344.9,591.3,344.9z"/>
	<path class="st0" d="M609.7,315.5c-11.5,0-25.7-1.2-42.8-3.6c-11.3-1.6-22.2-4.4-32.6-7.9v27.9c6.4,1.9,13.2,3.4,20.2,4.5
		c35.7,5.5,57,4.4,64.9-3.4c4.2-4.2,4.6-10.1,3.7-18.2C619,315.3,614.6,315.5,609.7,315.5z"/>
	<path class="st0" d="M631.5,290.1c-7.3,0-15.7-0.4-25.1-1.2c-17.5-1.5-36-6-53.9-12.1v27.3c4.9,1.2,10,2.1,15.1,2.8
		c41.9,5.9,65.9,4.5,75.4-4.3c3.5-3.2,5.2-7.5,5.2-13.4C643.4,289.8,637.9,290.1,631.5,290.1z"/>
	<path class="st0" d="M411.4,358.6l-6.6,27.7c10.2,9.3,21.8,18.1,34.3,26.7c18.9,13,35.8,17.8,47.5,13.6c5.7-2,9.9-6.2,12.2-11.8
		c-8.2-2.5-17.8-6.7-29-12.6C446.7,389.9,427.2,375.3,411.4,358.6z"/>
	<path class="st0" d="M480,344l-4.3,23.8c13.9,8.5,27.9,15.4,41,21.3c24.3,10.9,38.9,5.4,45.4,1.2c5.8-3.8,9.7-9.5,10.6-15.3
		c-7.4-0.4-15.8-1.6-25.2-3.8C523.2,365.6,500.2,356.2,480,344z"/>
	<path class="st0" d="M821.5,203.3c-2.7,7.4-12,18-27.3,26.1c-11.4,6-29.7,12.3-56.1,12.3c-6,0-12.4-0.3-19.2-1.1
		c-1.1,0.2-2.3,0.4-3.4,0.5c-0.3,2.6-1.5,6.9-5.7,11.3c-4.9,5.2-14.5,10.8-33.2,13.2c-0.4,5.1-1.8,11-7,15.7
		c-3.7,3.3-9,5.6-16.3,7.1c0.1,7.7-2.2,13.6-6.8,17.9c-0.5,0.5-1.1,1-1.7,1.4c101.5,25.2,148.3-13,163.8-30.9
		c19.2-22.1,25.7-51.5,16.8-75.6C824.2,201.9,822.9,202.6,821.5,203.3z"/>
	<path class="st0" d="M447.5,353.9l-3,26.8c8.6,6.2,17.9,11.9,27.8,17.2c24.5,13,41.1,17.4,50.8,13.2c4.4-1.9,7.5-5.6,9.6-11.7
		c-5.4-1-11.3-2.8-17.9-5.8C493.2,384.1,469.2,371.7,447.5,353.9z"/>
	<path class="st0" d="M437.1,262c3.2,4.5,13.1,17.9,29.2,32c14.1,12.4,35.4,27.4,63,36.4v-28.1c-42.7-15.6-75.3-42.9-83.5-50.2
		C443,255.5,440.1,258.8,437.1,262z"/>
	<path class="st0" d="M773.9,187.4c-18.4,2.1-36.7,3-54.7,3c-40.3,0-78.9-4.6-112.3-10.7l9.7,25.7c29,6.5,62.4,11.4,96.9,11.4
		c5.7,0,11.4-0.1,17.1-0.4c71.6-3.5,96.1-18.3,104.1-30.1c3-4.4,3.4-8.2,3.3-10.6C821.4,180.5,800.2,184.4,773.9,187.4z"/>
	<path class="st0" d="M894.6,77.4c-0.4,0.2-0.7,0.4-1.1,0.6l-3.2,1.7c-1,0.5-2.1,1.1-3.3,1.6l-6.4,3c-1.7,0.8-3.5,1.6-5.2,2.3
		l-7.8,3.2c-2.9,1.1-5.9,2.2-8.7,3.2c-1.5,0.5-3,1.1-4.4,1.6c-1.9,0.7-3.8,1.3-5.7,1.9l-7.6,2.4c-0.8,0.2-1.5,0.5-2.3,0.7
		c-1.4,0.5-2.9,0.9-4.4,1.3l-13.4,3.6c-0.7,0.2-1.5,0.4-2.2,0.6c-1.5,0.4-3.1,0.8-4.7,1.2l-13.4,3c-0.8,0.2-1.6,0.3-2.4,0.5
		c-1.4,0.3-2.9,0.7-4.4,0.9l-6.8,1.2l-13.6,2.3c-2.2,0.4-4.5,0.7-6.6,1l-22.5,2.8l-26.8,2.2c-0.8,0.1-1.5,0.1-2.3,0.2l-30.8,1.2
		l-34.3-0.1l-13.6-0.6L623,120l-8.6-0.5l20.4,34.9c19,2.2,39.3,3.7,60.1,3.7c24,0,48.7-1.9,72.7-6.7c61.9-12.4,92.9-21.6,110.3-32.9
		c17.1-11.1,20.2-24,18.6-42.2C895.9,76.7,895.2,77.1,894.6,77.4z"/>
	<path class="st0" d="M768.6,156.4c-24.6,4.9-49.8,6.8-74,6.8c-27.3,0-53.2-2.4-75.4-5.6l10.8,20.9c27.6,4.1,57.8,6.9,89.1,6.9
		c17.8,0,36-0.9,54.2-3c57-6.6,90.3-17.3,101.8-32.7c6-8.1,5.9-17.1,4.5-26.3C861.4,134.8,830,144.1,768.6,156.4z"/>
	<path class="st0" d="M898.3,37.3l-8.3,5.1l-3.7,2c-0.3,0.2-0.5,0.3-0.9,0.5l-3.9,2c-0.6,0.3-1.2,0.6-1.8,0.9
		c-0.3,0.1-0.7,0.3-1,0.4l-2.8,1.3c-0.9,0.4-1.9,0.9-2.9,1.3l-5.7,2.3c-1.3,0.6-2.7,1.1-4.1,1.6c-0.6,0.2-1.2,0.4-1.8,0.7l-5.9,2.1
		c-2.6,0.9-5.1,1.7-7.6,2.5c-1.5,0.5-3,0.9-4.4,1.4c-1.7,0.6-3.5,1.1-5.2,1.5l-7.1,1.9c-0.7,0.2-1.5,0.4-2.2,0.6
		c-1.3,0.4-2.6,0.7-4,1l-12.4,2.8c-0.7,0.1-1.4,0.3-2,0.5c-1.4,0.3-2.8,0.7-4.3,0.9l-12.5,2.3c-0.8,0.1-1.5,0.3-2.2,0.4
		c-1.4,0.3-2.7,0.5-4.1,0.7l-6.4,0.9l-12.7,1.8c-2,0.3-4.2,0.5-6.2,0.7l-6.7,0.6l-14.5,1.4l-25.3,1.4c-0.7,0-1.4,0.1-2.1,0.1
		l-29.2,0.3l-32.5-1l-12.9-0.9l-26.2-1.8c-4.1-0.3-8.3-0.5-12.3-0.7l-4-0.1c-3.9-0.1-7.9-0.2-11.8-0.1c-10.5,0.1-19.9,0.7-28.8,1.9
		c-10.6,1.4-20.2,3.5-29.3,6.4l-0.8,0.3c-2.2,0.7-4.3,1.4-6.5,2.3l-1.2,0.5c-0.8,0.3-1.7,0.6-2.5,1l-5.4,2.4l-5.4,2.7
		c-0.8,0.4-1.6,0.9-2.5,1.4l-1,0.6c-1,0.6-2.2,1.3-3.4,2l-3.4,2.2l-4.9,3.5l-2.6,2.1c-0.7,0.6-1.4,1.1-2.1,1.7
		c-3.9,3.3-7.7,7.1-11.4,11.1c-3.5,4-6.8,8.1-9.7,12.1c-3,4.3-5.8,8.5-8.1,12.6c-2.6,4.4-4.9,8.6-7,12.6c-1.8,3.4-4.1,7.9-6.2,12.4
		c-1.2,2.5-2.4,5.1-3.5,7.5c-2.6,5.6-5.1,10.9-7.7,16.2c-4,8.1-7.9,15.2-11.7,21.5c-2.1,3.5-4.4,6.8-6.5,9.9
		c-2.4,3.2-4.7,6.3-7.2,9.2c-0.8,0.9-1.6,1.9-2.5,2.8c-0.4,0.5-0.9,0.9-1.3,1.4c-1,1-1.9,2-2.8,2.9c-0.4,0.4-0.8,0.8-1.2,1.2
		c-2.5,2.4-5.5,5.2-8.7,7.7c-11.2,9.1-25.2,16.7-41.5,22.5c-1.9,0.7-3.8,1.4-5.8,2l-5.9,1.9l-12.9,3.9c-2.8,0.8-5.6,1.7-8.4,2.6
		c-1.5,0.5-3,1-4.6,1.4c-3.7,1.1-7.5,2.4-11.2,3.7l-1.7,0.6c-15.5,5.3-33.8,12-51.6,21.5l-1.1,0.6c-0.7,0.4-1.4,0.7-2.1,1.1
		l-9.4,5.7c-1.3,0.8-2.6,1.8-3.9,2.7c-0.7,0.5-1.4,1-2.1,1.4l-3,2.1c-0.2,0.1-0.4,0.3-0.5,0.4c-0.3,0.2-0.6,0.4-0.9,0.6l-1.4,1.2
		c-0.7,0.6-1.4,1.1-2.1,1.7c-3.1,2.5-6.3,5.1-9,7.9c-0.6,0.6-1.2,1.2-1.8,1.8c-1.2,1.2-2.4,2.3-3.5,3.4l-7.4,8.1
		c-0.5,0.6-1,1.2-1.4,1.8l-6.4,8.1l-7.1,10.2c-2.2,3.5-4.8,7.6-7.4,11.9l0,0c-2.2,3.4-3.6,6.7-4.5,9.8c0,0.1,0,0.1-0.1,0.2
		c-2.1,7.4-1.2,13.5-0.5,16.3c1.2,5.1,3.4,8,4.9,9c3.5,2.1,7.7,2.6,11.7,1.5c4.5-1.3,8.4-4.4,10.5-8.5c8.8-16.8,17.7-30.1,27.1-40.9
		c10.7-12.1,22.8-21.5,36.9-28.9l6.8-3.5l9.9-4.4l11.6-4.6l12.1-4.3l8.1-2.6c3.4-1.1,6.9-2.2,10.5-3.3c1.5-0.4,3-0.9,4.5-1.3
		c2.6-0.8,5.3-1.6,8.1-2.4l19.4-5.6c2.3-0.6,4.5-1.4,6.8-2.1l3.5-1.1c0.7-0.2,1.4-0.5,2.2-0.8l2.3-0.8c1.9-0.7,3.8-1.4,5.6-2.2
		c4.5-1.8,9-3.8,13.5-5.9c9.6-4.7,17.9-9.7,25.6-15.2c15.4-10.9,29.5-25.9,41-43.3c5.7-8.4,10.4-17.2,14.3-24.7
		c1.9-3.8,3.9-7.8,6-12.3l5.7-12c4.1-8.5,7.5-15.6,11.3-22.2c1.8-3.1,3.8-6.4,6.1-9.9c2-2.9,4.2-5.8,6.7-8.8c2.5-2.9,5-5.3,7.5-7.6
		c0.4-0.4,0.8-0.7,1.3-1.1c0.2-0.2,0.5-0.4,0.7-0.6l1.1-0.9l3.2-2.4l2.1-1.4c0.7-0.5,1.5-1,2.3-1.5l2.3-1.4l3.6-1.9l3.6-1.7
		c0.6-0.3,1.1-0.5,1.6-0.7c0.3-0.1,0.6-0.3,1-0.4c1.3-0.6,2.8-1.1,4.1-1.6l1.1-0.4c12.9-4.4,28.2-6.8,46.8-7.3
		c3.3-0.1,6.7-0.1,9.9-0.1l4.6,0.1c3.4,0.1,7,0.2,10.5,0.5l13.2,0.7l13.6,0.7l13.5,0.6l34,0.1l30.6-1.2c0.7,0,1.4-0.1,2.1-0.2
		l26.7-2.2l22.3-2.8c2.2-0.3,4.3-0.5,6.4-0.9l20.3-3.5c1.4-0.3,2.8-0.6,4.3-0.9c0.8-0.2,1.6-0.4,2.4-0.5l13.4-3
		c1.5-0.3,2.9-0.7,4.4-1.1c0.7-0.2,1.5-0.4,2.2-0.6l13.3-3.6c1.4-0.4,2.8-0.8,4.2-1.3c0.8-0.2,1.6-0.5,2.3-0.7l7.6-2.4
		c1.9-0.6,3.7-1.1,5.4-1.8c1.5-0.6,3-1.1,4.5-1.6c2.8-1,5.7-2.1,8.6-3.2l7.8-3.2c1.7-0.7,3.4-1.4,5-2.2l6.5-3c1.1-0.5,2.2-1,3.1-1.5
		l3.2-1.6c0.4-0.2,0.7-0.4,1.1-0.6c0.7-0.3,1.3-0.7,2-1l4.8-2.7c0.3-0.2,0.7-0.4,1-0.6l4.1-2.6c6.4-4.3,6.4-12.4,4.3-18.5
		C906.8,42.7,901.3,39,898.3,37.3z"/>
	<path class="st0" d="M374.4,303.4c-1.9,0.8-3.9,1.5-5.8,2.2l-2.3,0.8c-0.8,0.3-1.5,0.6-2.3,0.8l-3.5,1.1c-0.9,0.3-1.8,0.6-2.7,0.9
		c7.5,30.7,22.4,53.4,42.8,73l6.7-28.3c-13.6-15.4-24.1-32.5-31.5-51.3C375.4,303,374.9,303.2,374.4,303.4z"/>
	<path class="st0" d="M311.3,323.2l-8,2.6l-7.6,2.7c4.2,25.7,14.1,49.6,29.7,71.5l15-27.1c-11.2-15.7-19.5-33.3-21.6-52.1
		C316.2,321.6,313.7,322.4,311.3,323.2z"/>
	<path class="st0" d="M388.2,297.3c-2.5,1.2-5.1,2.4-7.7,3.5c11.7,29.8,31.6,55.4,59.3,76.4l3.1-27.2
		c-17.5-15.2-33.1-34.1-44.3-58.2C395.3,293.7,391.8,295.5,388.2,297.3z"/>
	<path class="st0" d="M334.1,316.2c-2.7,0.8-5.4,1.6-8,2.4c-0.8,0.3-1.7,0.5-2.5,0.8c2.7,27.2,20,52.3,38.9,72.1l9.8-35.6
		c-8.3-13-15-27.8-19.3-45.1L334.1,316.2z"/>
	<path class="st0" d="M414.5,281.7c-3.7,2.7-7.5,5.2-11.6,7.6c15.9,34.6,41.5,58.4,68.2,75.6l4.2-23.8
		c-25.7-16.3-46.5-37.2-59.5-60.5C415.5,281,415,281.4,414.5,281.7z"/>
	<path class="st0" d="M420,277.6c16.2,29.5,45.4,55,81.2,72.1l3-24.2c-17.2-8.6-31-18.9-41.2-27.8c-15.8-13.9-25.6-26.7-29.3-32
		C429.2,269.9,424.6,273.9,420,277.6z"/>
	<path class="st0" d="M308.7,382.6l-16.4,36.1c7.1,9.9,15.8,19.9,26.7,29.5c12.6,11.1,24.8,16.1,36.1,14.8
		c9.7-1.1,16.4-6.6,19.7-9.9c-5.7-2.3-11.3-5.9-17-10.8C336.7,424.3,320.3,404.3,308.7,382.6z"/>
	<path class="st0" d="M279.9,334.5l-9.7,4.3l-6.6,3.4c0,0,0,0,0,0c1.1,14.2,6,42.3,25.4,71.7l16.8-37c-7.2-14.8-12.2-30.5-15-46.8
		L279.9,334.5z"/>
	<path class="st0" d="M376,361.3l-9.5,34.3c14.7,14.7,29.9,26.2,39.6,33c14.1,9.8,27.3,13.7,37.3,10.9c5.7-1.6,10.2-5.3,13.4-11
		c-6.1-2.5-12.9-6.2-20.5-11.4C414.2,401.9,392.5,384.6,376,361.3z"/>
	<path class="st0" d="M343.6,377.3l-15,27.1c9.1,12,19.9,23.4,32.5,34.1c11.2,9.6,22.3,13.8,32.8,12.6c10.5-1.2,18.1-7.7,21.6-11.2
		c-3.9-1.9-8-4.3-12.1-7.2C386,420.6,361.8,401.3,343.6,377.3z"/>
	<path class="st0" d="M228.2,370c-3.7,4.2-7.3,8.9-10.9,14c2.6,5.1,13.2,24.7,29.4,44.9l21.4-45.3c-5.9-15.8-8.3-29.6-9.2-38.8
		C247.3,351.6,237.3,359.8,228.2,370z"/>
	<path class="st0" d="M270.6,390l-20.4,43.2c7.8,9.3,16.8,18.5,26.8,26.3c12.2,9.5,23.9,13.6,34.6,12.1c9.2-1.3,15.6-6.4,18.6-9.4
		c-4.8-2.6-9.6-6-14.4-10.3C292.7,431.6,278.8,409.6,270.6,390z"/>
</g>
<g>
	<path class="st1" d="M265.8,184.9c4.5-4.2,9.5-6.5,15.1-6.6c0.2,0,0.4,0,0.6,0c11.5,0,21.1,8.9,32,22.2c6,7.4,16.9,9.4,24.1,10
		c-6.5-10.3-9.1-20.6-10.6-26.7c-1-4.1-5.5-7.4-7.2-8.4c-4.7-2.6-7.3-7.9-6.4-13.2c1-5.4,5.2-9.5,10.6-10.2c0.7-0.1,2.1-0.2,4.2-0.2
		c13,0,45.4,5.3,80,51c3.1-5.3,6.2-11.1,9.5-17.6c2.5-5.1,5-10.3,7.6-15.9l0.1-0.2c1.1-2.4,2.3-4.9,3.5-7.4
		c2.2-4.6,4.6-9.3,6.4-12.9c2.2-4.2,4.6-8.7,7.4-13.3c0.9-1.5,1.9-3.1,2.9-4.7c-5.5-8-17.9-23-40-33.9c-3.2-1.6-5.6-4.5-6.5-8
		c-0.9-3.5-0.3-7.2,1.8-10.2c5.5-8.1,7.6-16.9,8.1-24.4c-10.7,5.7-24.3,11.2-39.9,14.1c-7.8,1.5-15.7,2.2-23.4,2.2
		c-17.6,0-34.8-3.9-51.1-11.6C278.9,51.7,261.9,48,243.9,48c-22.5,0-46.1,6-64.7,16.4c-1.9,1-4,1.6-6.1,1.6c-1.4,0-2.9-0.2-4.2-0.7
		c-3.4-1.2-6.1-3.8-7.4-7.2c-3.3-8.3-9.8-14.7-15.8-19.1c-3.4,5.9-8.8,11.4-16.1,16.4c-11.1,7.7-27.1,14.6-48.9,21.1
		c-24.8,7.4-43.6,24.3-48.9,44c-6.5,24.2,7.9,47.9,22.5,64.5H265.8z"/>
	<path class="st1" d="M738.1,251.7c-5,0-10.1-0.2-15.3-0.6c-1.3,2.7-3.1,5.5-5.8,8.3c-6.9,7.3-17.6,12.3-31.9,15.1
		c-1.6,5.8-4.6,10.5-9,14.4c-3.6,3.2-8.1,5.7-13.6,7.5c-0.3,1.7-0.7,3.3-1.3,4.9c16.3,3.2,31.8,4.9,46.2,4.9
		c54.2,0,81.8-22.5,93.5-35.8c11.8-13.6,18.2-30.5,18.2-46.6c-5.6,5.5-12.6,10.6-20.4,14.7C787.1,244.4,767,251.7,738.1,251.7z"/>
</g>
<path class="st2" d="M211.7,124.6c18.1-2.6,37.6-2.9,46.1-2.9c8.3,0,16.6,0.3,24.6,0.8l20.4,1.3L289.3,139
	c-6.6,7.4-19.1,13.8-32,16.2c-1.5,0.3-2.8,1.6-5.8,4.8c-4.3,4.7-10.3,11.2-21.6,14.1l-2.5,0.6c-14.2,3.6-14.2,3.8-14.6,10.8
	l-0.6,9.3h-157l-1.5-8.2C49.1,162,54,141,68.1,124.1C90.7,97,136.2,81,199.7,82.7c42.7,1.2,74.2-9.8,74.2-9.8
	C268.1,101.7,211.7,124.6,211.7,124.6z"/>
<path class="st3" d="M63.4,184.9h139.3c1-15.3,9-16.5,24.7-20.5s17.3-17,28-19c10.7-2,21.3-7.3,26.3-13c-42-2.7-87,2-96.7,10.7
	c7-23,38.3-39.3,61-48C131.1,84.1,50.1,111.6,63.4,184.9z"/>
<path class="st4" d="M913.2,45.9c-3-8.7-13.6-13.4-14.1-13.6l-1.2-0.5l-10.4,6.4l-3.6,2c-0.2,0.1-0.4,0.2-0.7,0.4l-3.9,2
	c-0.5,0.3-1.1,0.5-1.6,0.8c-0.3,0.2-0.7,0.3-1,0.5l-2.8,1.3c-0.8,0.4-1.7,0.8-2.7,1.2l-5.8,2.3c-1.2,0.5-2.5,1-3.8,1.5
	c-0.6,0.2-1.3,0.5-1.9,0.7l-5.8,2.1c-2.5,0.8-5,1.6-7.5,2.4c-1.5,0.5-3,0.9-4.5,1.4c-1.6,0.5-3.2,1-5,1.4l-7.1,1.9
	c-0.7,0.2-1.5,0.4-2.2,0.6c-1.3,0.3-2.6,0.7-3.8,1l-12.4,2.8c-0.7,0.1-1.4,0.3-2.1,0.5c-1.4,0.3-2.7,0.6-4,0.8l-12.6,2.3
	c-0.8,0.1-1.5,0.3-2.3,0.4c-1.3,0.2-2.6,0.5-3.9,0.7l-19.1,2.6c-1.9,0.3-3.9,0.5-5.9,0.7l-21,2l-25.2,1.4c-0.7,0-1.3,0.1-2,0.1
	l-29,0.3l-32.2-1l-12.9-0.9L613,72.4c-4.1-0.3-8.4-0.5-12.5-0.7l-4.1-0.1c-3.9-0.1-8-0.2-12-0.1c-10.6,0.1-20.3,0.7-29.4,1.9
	c-10.9,1.4-20.8,3.6-30.3,6.6l-0.8,0.3c-2.2,0.7-4.5,1.5-6.7,2.4L516,83c-0.9,0.3-1.7,0.7-2.7,1.1l-5.5,2.5l-5.6,2.8
	c-0.9,0.5-1.8,1-2.6,1.5l-0.9,0.5c-1.1,0.6-2.4,1.4-3.6,2.2l-3.4,2.2l-5.1,3.7l-2.7,2.2c-0.8,0.6-1.5,1.2-2.2,1.8
	c-4,3.5-8,7.4-11.9,11.6c-3.3,3.7-6.3,7.5-9.1,11.3c-4.7-8-18.3-27.3-45.9-41.7c15.1-24.4,7.5-51.2,7.1-52.4
	c-0.2-0.8-0.8-1.4-1.6-1.7c-0.8-0.3-1.6-0.1-2.3,0.3c-13.7,9.9-62.7,40.3-117.1,14.4c-46.1-21.9-96.3-11.6-126.5,4.4
	C164.2,28,139.6,18,138.5,17.6c-0.8-0.3-1.7-0.2-2.4,0.3c-0.7,0.5-1.1,1.4-1,2.2C136.7,36,117.5,49.7,76.4,62
	C46.6,70.9,24,91.8,17.3,116.5c-4.7,17.5-3.8,45.4,26.8,79.5c-3.3,1.7-5.5,5.1-5.5,9v6.7c0,2,0.6,3.9,1.6,5.5
	c-7.4,1.6-13,8.2-13,16.1v10.9c0,9.1,7.4,16.5,16.5,16.5h17.9l54,335.5c0,0,0,0,0,0c0,0,0,0,0,0l0.8,5.2h-0.1
	c-6.2,0-11.2,5-11.2,11.2v14.5c0,6.2,5,11.2,11.2,11.2h11.4l22.7,52.2H174l26.7-52.2h7.7c6.2,0,11.2-5,11.2-11.2v-14.5
	c0-5.2-3.6-9.6-8.5-10.9l16.4-129.1c7.2,2.8,14.5,4.2,21.5,4.2c11,0,21.2-3.5,29.2-10.3c10,6.8,19.7,10.3,29,10.3
	c1.7,0,3.4-0.1,5.1-0.3c12-1.7,19.7-8.8,22.6-12c5.7,2.4,11.3,3.7,16.7,3.7c1.4,0,2.7-0.1,4.1-0.2c13.1-1.5,21.4-9.7,24.3-13.1
	c3.5,1,6.9,1.5,10.3,1.5c1.4,0,2.8-0.1,4.2-0.2c13.6-1.6,22.6-10.4,25.8-14.1c5.8,2.3,11.3,3.4,16.4,3.4c2.9,0,5.6-0.4,8.2-1.1
	c7.2-2,13-6.8,16.7-14c6.1,2.1,11.4,2.9,15.9,2.9c4.4,0,8-0.7,10.9-1.8c7.2-2.6,12.6-7.9,15.4-15.2c4,0.9,7.7,1.4,11,1.4
	c3.9,0,7.3-0.6,10.2-1.9c6-2.5,10.1-7.6,12.7-15.5c1.9,0.2,3.6,0.3,5.3,0.3c10.4,0,17.6-3.2,21.9-6c7.2-4.7,12-11.9,12.9-19.4
	c12.1-0.1,21.2-2.8,27.2-8.1c6.4-5.7,9.3-14.1,8.6-25c3.9-1.3,7-3.1,9.3-5.4c6.1-6.1,6.1-14.6,5.1-22.4c4-0.7,7.4-1.7,10.4-2.9
	c24.6,6.5,47.6,9.8,69,9.8c13.8,0,26.9-1.4,39.3-4.1c27.2-6,49.9-18.8,65.6-36.8c21.1-24.2,27.6-55.3,17.3-81.8
	c4.2-3.1,7.1-6.2,9.1-9.2c4.2-6.3,4.4-11.8,4.1-14.9c18-5.8,29.9-12.9,36.3-21.5c7.7-10.3,6.9-21.6,5-32.4
	c16.7-12.4,19.2-27.2,17.2-46.7l0.2-0.1c0.4-0.2,0.8-0.5,1.2-0.7l2.2-1.4l2-1.3C914.3,65.2,916.7,55.9,913.2,45.9z M22.2,117.8
	c6.2-23,27.6-42.6,55.7-51c41.1-12.3,61.1-26,62.3-43c7.3,3.7,24,13.6,30.6,30.5c0.3,0.7,0.8,1.2,1.5,1.4c0.7,0.2,1.4,0.2,2.1-0.2
	C203.2,39.5,253,28.3,298.7,50c21.5,10.2,44.5,13.1,68.4,8.6c21.8-4.1,39.2-13.5,50.8-21.3c1.5,8.1,3.7,28.9-8.8,47.1
	c-0.4,0.6-0.5,1.3-0.4,2c0.2,0.7,0.7,1.3,1.3,1.6c30.7,15.2,44.4,37.5,47.4,43c-2.2,3.3-4.3,6.5-6.1,9.6c-2.6,4.5-5,8.8-7.1,12.8
	c-1.8,3.5-4.1,8-6.2,12.5c-1.2,2.5-2.4,5.1-3.5,7.5c-2.6,5.6-5.1,10.9-7.7,16.1c-4,8-7.8,14.9-11.5,21.2c-2,3.4-4.2,6.6-6.2,9.5
	c-0.1,0.1-0.2,0.2-0.3,0.3c-41.9-63.5-81.6-58.9-83.3-58.7c-1.1,0.1-1.9,1-2.1,2c-0.2,1.1,0.3,2.1,1.3,2.6
	c0.1,0.1,9.7,5.2,12.1,14.7c2.1,8.5,6.4,25.6,21.7,37.3c-13.1,3.6-40,3.7-52.6-11.8c-10.9-13.3-18-18.7-24.6-18.5
	c-4,0.1-7.5,2.3-11,6.6H49.9C25.3,168.4,15.7,141.7,22.2,117.8z M215.5,528c-29.4,12.1-54.5,28.9-70.5,41.1
	c-9.6,7.3-16.8,13.5-21.1,17.4c-1.7,1.6-3.1,2.8-4.2,3.9l-6.6-41.2c0.4-0.4,0.9-0.8,1.6-1.5c29.1-27.2,65.4-52.7,107.9-75.9
	L215.5,528z M112.2,543.3l-7.8-48.6c6.2-6.4,45.6-46,86.8-56.8c4.9,12.4,14.4,23.2,27.4,30.6C176.8,491.3,141.1,516.5,112.2,543.3z
	 M187.6,421.1c0.2,4.1,0.8,8.1,1.9,12c-38.9,10.3-75,44.2-86.2,55.4l-7.2-44.8c5.6-5.8,36.9-37.6,68.6-51.1
	c-1,6.3-0.2,11.5,0.4,14.1c1.3,5.7,4,10.1,7.2,12.1c3.1,1.9,6.5,2.8,10.1,2.8C184.2,421.7,185.9,421.5,187.6,421.1z M166.2,386.7
	c-30.3,11.7-60.9,40.6-71,50.9l-7.4-45.9c39.5-45.1,69.3-60.4,100.9-76.5c20.3-10.4,41.2-21.1,66.2-40v23.1
	c-3.8,1.8-7.6,3.7-11.5,5.8l-1.1,0.6c-0.7,0.4-1.4,0.8-2.3,1.2l-9.5,5.8c-1.4,0.9-2.8,1.9-4.2,2.9c-0.7,0.5-1.3,0.9-2,1.4l-3.1,2.2
	c-0.2,0.1-0.3,0.2-0.5,0.4c-0.4,0.3-0.7,0.5-1.1,0.8l-1.5,1.2c-0.7,0.6-1.4,1.1-2.1,1.7c-3.2,2.6-6.5,5.3-9.4,8.3
	c-0.6,0.6-1.2,1.1-1.8,1.7c-1.2,1.2-2.5,2.3-3.7,3.6l-7.5,8.2l-0.1,0.1c-0.5,0.6-1,1.3-1.5,1.9l-6.4,8.2l-7.3,10.4l-0.1,0.1
	c-2.2,3.5-4.8,7.7-7.5,12C168.8,380.1,167.3,383.5,166.2,386.7z M78.1,331.3c22-21.5,45-32.7,63.6-41.7
	c18.2-8.8,32.8-15.9,40.1-28.9h73.1v8.3c-26,20.1-47.6,31.2-68.5,41.8c-31.3,16-60.9,31.1-99.7,74.6L78.1,331.3z M69.8,279.8
	c4.7-4.9,11.6-8.8,17.8-12.3c4.4-2.5,8.2-4.6,10.8-6.9h77.6c-7.1,10.2-20.2,16.6-36.4,24.4c-18.2,8.8-40.6,19.7-62.4,40.2
	L69.8,279.8z M259.9,260.7h23.4c9.1,0,16.5-7.4,16.5-16.5v-10.9c0-8.7-6.7-15.8-15.2-16.4c0.9-1.5,1.5-3.3,1.5-5.2V205
	c0-5.2-4-9.5-9-10.1c1.4-1.1,2.8-1.7,4.2-1.7c4.7-0.1,11,5,20.5,16.7c16.1,19.8,51.5,17.1,63,11.6c0.8-0.4,1.4-1.2,1.4-2.1
	c0.1-0.9-0.4-1.8-1.2-2.3c-16.9-10.5-21.4-28.5-23.5-37.1c-1.4-5.6-4.7-9.9-7.9-12.9c4.3,0.6,10.1,2,17.1,5.2
	c13.5,6.1,33.8,20.2,54.8,52.5c-1.1,1.5-2.3,2.9-3.5,4.3c-0.7,0.9-1.5,1.8-2.4,2.7c-0.4,0.5-0.9,1-1.3,1.4c-0.9,0.9-1.7,1.8-2.7,2.8
	c-0.4,0.4-0.8,0.8-1.1,1.1c-2.4,2.3-5.2,4.9-8.3,7.3c-10.8,8.7-24.3,16.1-40,21.8c-1.8,0.7-3.7,1.3-5.6,1.9l-2.9,0.9l-15.9,4.8
	c-2.8,0.8-5.7,1.7-8.4,2.6c-1.5,0.5-3,1-4.5,1.4c-3.8,1.1-7.6,2.4-11.3,3.7l-1.7,0.6c-11,3.7-23.3,8.2-35.9,13.8V260.7z M43.6,205
	c0-2.8,2.3-5.1,5.1-5.1H276c2.8,0,5.1,2.3,5.1,5.1v6.7c0,2.8-2.3,5.1-5.1,5.1H48.8c-2.8,0-5.1-2.3-5.1-5.1V205z M32.2,244.2v-10.9
	c0-6.3,5.2-11.5,11.5-11.5h5H276h7.4c6.3,0,11.5,5.2,11.5,11.5v10.9c0,6.3-5.2,11.5-11.5,11.5H43.7
	C37.4,255.7,32.2,250.5,32.2,244.2z M89.5,260.7c-1.4,0.8-2.9,1.7-4.4,2.5c-5.4,3.1-11.4,6.4-16.3,10.7l-2.1-13.2H89.5z
	 M120.8,596.5c5.2-5.7,43.3-41.3,94-62.7l-6.8,53.2c-11.9,2.3-22.4,11.7-25.3,14.5h-61.2L120.8,596.5z M190.3,601.4
	c4.1-3.3,10.3-7.5,17-9.2l-1.2,9.2H190.3z M170.9,685.6h-17.2l-20.5-47.2H195L170.9,685.6z M214.6,612.7v14.5c0,3.4-2.8,6.2-6.2,6.2
	h-92c-3.4,0-6.2-2.8-6.2-6.2v-14.5c0-3.4,2.8-6.2,6.2-6.2h92C211.8,606.4,214.6,609.2,214.6,612.7z M226.3,466.8
	c-20.7-9.4-33.7-27.9-33.7-47.6c3.9-2.1,7.1-5.3,9.2-9.2c4.1-7.8,8.2-14.8,12.4-21.2c6.5,12.1,28.5,50.4,59.8,74.7
	c0.1,0.1,0.1,0.1,0.2,0.1C261.8,473.4,243.8,474.7,226.3,466.8z M608.4,119.3l20.2,34.5c-49.5-6.3-89-17.6-102.6-21.9l3-1.6l3.5-1.6
	c0.5-0.2,0.9-0.4,1.4-0.6c0.3-0.1,0.7-0.3,1.1-0.4c1.2-0.5,2.5-1,3.8-1.4l1.1-0.4c12.4-4.3,27.2-6.5,45.3-7c3.2-0.1,6.5-0.1,9.7-0.1
	l2.4,0l2.1,0.1C602.4,119,605.4,119.1,608.4,119.3z M519.3,136.1l1.1-0.7c6.3,2.1,37.1,11.8,79.2,19.2c4.3,0.7,8.8,1.5,13.5,2.2
	l10.8,20.8c-56.8-9-101.1-23.2-117.9-29.1c0.2-0.2,0.4-0.4,0.5-0.7c2.4-2.7,4.7-5,7.1-7.2c0.4-0.3,0.7-0.6,1.1-0.9
	c0.3-0.2,0.5-0.4,0.8-0.7l0.9-0.8L519.3,136.1z M502.7,152.6c13.5,4.8,50.1,16.8,98.5,26l9.6,25.5c-16.7-3.9-31.9-8.3-44.8-12.5
	c-36.5-11.9-62.7-24.4-70.4-28.2c1.4-2.3,2.9-4.7,4.6-7.2C500.9,155,501.8,153.8,502.7,152.6z M813.9,206.8
	c-8.7,12.3-33.9,30.9-79.9,29.8c10.1-4,14.6-9.7,16.5-16.6C780,217.4,800.2,212.5,813.9,206.8z M666.3,237.9
	c-18.1-0.5-37-3.4-55.6-7.5l-9.5-23.5c32.4,8.2,71.5,14.9,112.2,14.9c5.7,0,11.5-0.1,17.3-0.4c5-0.2,9.8-0.5,14.4-0.9
	C741,231,726.1,239.7,666.3,237.9z M567.6,306.9c-5.1-0.7-10.1-1.7-15.1-2.8v-27.3c17.9,6.1,36.4,10.6,53.9,12.1
	c9.5,0.8,17.8,1.2,25.1,1.2c6.3,0,11.9-0.3,16.7-0.9c-0.1,5.9-1.8,10.2-5.2,13.4C633.5,311.5,609.5,312.8,567.6,306.9z M606.8,283.9
	c-8.6-0.7-17.5-2.2-26.4-4.3l-3.5-26.2c22.5,6.7,45.7,11.8,66.5,12.9c4.7,0.3,9,0.4,13.1,0.4c5.5,0,10.4-0.2,14.9-0.6
	c-0.6,5.2-2.2,8.7-5.2,11.4C658.2,284.7,639.3,286.7,606.8,283.9z M643.8,261.4c-14.1-0.8-29.3-3.4-44.7-7.1l-6.4-23.1
	c24.3,6.4,49.6,11.1,73.5,11.8c5.4,0.2,10.4,0.2,15.2,0.2c11.4,0,20.9-0.5,29-1.3c-0.5,1.9-1.6,4.6-4.3,7.4
	C699.4,256,683.2,263.6,643.8,261.4z M493,167.7c7.5,3.8,34.1,16.5,71.2,28.6c9.3,3,19.7,6.1,31,9.1l9.6,23.6
	c-49.7-11.8-96.8-32.4-120.6-43.7C487.3,178.7,490.1,173.1,493,167.7z M482,189.8c21.3,10.1,61.2,27.6,105.1,39.8l6.4,23.3
	c-54-14-108.2-40.2-119.7-45.9c1.2-2.4,2.4-4.8,3.6-7.4L482,189.8z M471.3,211.9c0.1-0.2,0.2-0.3,0.3-0.5
	c10.1,5,53.1,25.9,100.2,40.4l3.5,26.5c-45.8-11.6-91.8-37.2-111.7-52.3C466.4,221.2,469,216.3,471.3,211.9z M461,230.4
	c16.5,12.4,49.9,31.5,86.5,44.6v27.8c-50.3-13.4-90.2-47.2-98.7-54.7c2.7-3.5,5.3-7.2,7.8-11C458.2,234.9,459.6,232.7,461,230.4z
	 M445.8,252.1c8.2,7.3,40.8,34.6,83.5,50.2v28.1c-27.5-9-48.8-24-63-36.4c-16.1-14.2-26-27.5-29.2-32
	C440.1,258.8,443,255.5,445.8,252.1z M433.5,265.6c3.8,5.3,13.6,18.2,29.3,32c10.2,9,24.1,19.3,41.2,27.8l-3,24.2
	c-35.7-17.1-65-42.6-81.2-72.1C424.6,273.9,429.2,269.9,433.5,265.6z M415.9,280.6c13,23.3,33.8,44.2,59.5,60.5l-4.2,23.8
	c-26.8-17.3-52.3-41-68.2-75.6c4-2.4,7.9-5,11.6-7.6C415,281.4,415.5,281,415.9,280.6z M398.6,291.8c11.2,24.1,26.8,43,44.3,58.2
	l-3.1,27.2c-27.7-21-47.6-46.6-59.3-76.4c2.6-1.1,5.1-2.3,7.7-3.5C391.8,295.5,395.3,293.7,398.6,291.8z M375.9,302.8
	c7.4,18.8,17.9,35.9,31.5,51.3l-6.7,28.3c-20.4-19.7-35.3-42.4-42.8-73c0.9-0.3,1.8-0.6,2.7-0.9l3.5-1.1c0.8-0.3,1.5-0.6,2.3-0.8
	l2.3-0.8c1.9-0.7,3.9-1.4,5.8-2.2C374.9,303.2,375.4,303,375.9,302.8z M353.1,310.8c4.3,17.3,11,32.1,19.3,45.1l-9.8,35.6
	c-18.9-19.9-36.2-44.9-38.9-72.1c0.8-0.3,1.7-0.5,2.5-0.8c2.6-0.8,5.3-1.6,8-2.4L353.1,310.8z M318.7,320.8
	c2.1,18.8,10.4,36.3,21.6,52.1l-15,27.1c-15.6-21.9-25.6-45.8-29.7-71.5l7.6-2.7l8-2.6C313.7,322.4,316.2,321.6,318.7,320.8z
	 M290.8,330.2c2.7,16.3,7.8,31.9,15,46.8l-16.8,37c-19.4-29.4-24.3-57.5-25.4-71.7c0,0,0,0,0,0l6.6-3.4l9.7-4.3L290.8,330.2z
	 M258.8,344.9c0.9,9.2,3.3,23,9.2,38.8l-21.4,45.3c-16.2-20.2-26.7-39.8-29.4-44.9c3.6-5.1,7.2-9.8,10.9-14
	C237.3,359.8,247.3,351.6,258.8,344.9z M311.6,471.6c-10.8,1.5-22.4-2.6-34.6-12.1c-10-7.8-19-17-26.8-26.3l20.4-43.2
	c8.3,19.6,22.1,41.6,45.2,61.9c4.8,4.3,9.7,7.7,14.4,10.3C327.2,465.2,320.9,470.3,311.6,471.6z M355.2,463
	c-11.3,1.3-23.4-3.7-36.1-14.8c-10.9-9.6-19.7-19.6-26.7-29.5l16.4-36.1c11.5,21.7,28,41.6,49.1,59.7c5.7,4.9,11.4,8.4,17,10.8
	C371.6,456.4,364.9,461.9,355.2,463z M393.9,451.1c-10.6,1.2-21.6-3-32.8-12.6c-12.5-10.7-23.4-22.1-32.5-34.1l15-27.1
	c18.2,24,42.4,43.3,59.7,55.4c4.1,2.9,8.2,5.3,12.1,7.2C412,443.5,404.5,449.9,393.9,451.1z M443.5,439.6
	c-10,2.8-23.2-1.1-37.3-10.9c-9.8-6.8-24.9-18.3-39.6-33l9.5-34.3c16.4,23.3,38.2,40.6,60.3,55.8c7.6,5.2,14.4,8.9,20.5,11.4
	C453.7,434.3,449.3,438,443.5,439.6z M486.7,426.7c-11.7,4.2-28.6-0.6-47.5-13.6c-12.6-8.7-24.1-17.4-34.3-26.7l6.6-27.7
	c15.8,16.8,35.3,31.4,58.5,43.7c11.2,6,20.8,10.1,29,12.6C496.7,420.5,492.4,424.7,486.7,426.7z M523.1,411.1
	c-9.7,4.1-26.3-0.2-50.8-13.2c-10-5.3-19.3-11.1-27.8-17.2l3-26.8c21.7,17.8,45.8,30.1,67.3,39.8c6.6,3,12.6,4.8,17.9,5.8
	C530.6,405.5,527.5,409.2,523.1,411.1z M562.2,390.3c-6.5,4.2-21.1,9.7-45.4-1.2c-13.1-5.9-27.2-12.8-41-21.3L480,344
	c20.2,12.2,43.2,21.6,67.6,27.2c9.4,2.2,17.8,3.4,25.2,3.8C571.9,380.8,568,386.5,562.2,390.3z M601.7,363.2c-9.1,8.1-27,9.1-53,3.1
	c-14.9-3.4-29.3-8.3-42.8-14.4l3-24.2c13.2,6.1,28.2,11.1,44.9,13.6c15,2.3,27.4,3.5,37.6,3.5c6.8,0,12.5-0.5,17.3-1.5
	C609.1,352.1,606.7,358.8,601.7,363.2z M619.4,333c-7.9,7.8-29.1,8.9-64.9,3.4c-7.1-1.1-13.8-2.6-20.2-4.5V304
	c10.4,3.5,21.3,6.3,32.6,7.9c17.1,2.4,31.2,3.6,42.8,3.6c4.9,0,9.4-0.2,13.4-0.7C624,322.9,623.6,328.9,619.4,333z M808.6,276.8
	c-15.6,17.9-62.4,56.1-163.8,30.9c0.6-0.5,1.2-0.9,1.7-1.4c4.7-4.3,6.9-10.2,6.8-17.9c7.3-1.4,12.6-3.8,16.3-7.1
	c5.2-4.6,6.6-10.6,7-15.7c18.7-2.4,28.3-8,33.2-13.2c4.2-4.4,5.4-8.7,5.7-11.3c1.2-0.2,2.3-0.3,3.4-0.5c6.8,0.7,13.2,1.1,19.2,1.1
	c26.4,0,44.7-6.3,56.1-12.3c15.3-8,24.6-18.7,27.3-26.1c1.4-0.7,2.7-1.5,3.9-2.2C834.2,225.3,827.8,254.6,808.6,276.8z M834.6,186.3
	c-8,11.8-32.5,26.7-104.1,30.1c-5.7,0.3-11.4,0.4-17.1,0.4c-34.5,0-67.8-4.9-96.9-11.4l-9.7-25.7c33.4,6.1,72,10.7,112.3,10.7
	c18,0,36.3-0.9,54.7-3c26.3-3,47.5-6.9,64.1-11.7C838,178,837.6,181.9,834.6,186.3z M875.1,149.7c-11.5,15.5-44.8,26.2-101.8,32.7
	c-18.2,2.1-36.4,3-54.2,3c-31.3,0-61.6-2.8-89.1-6.9l-10.8-20.9c22.3,3.1,48.2,5.6,75.4,5.6c24.2,0,49.4-1.9,74-6.8
	c61.4-12.3,92.8-21.6,111-33C881,132.7,881.2,141.6,875.1,149.7z M878,118.5c-17.5,11.3-48.4,20.5-110.3,32.9
	c-24,4.8-48.7,6.7-72.7,6.7c-20.8,0-41.1-1.4-60.1-3.7l-20.4-34.9l8.6,0.5l13.6,0.7l13.6,0.6l34.3,0.1l30.8-1.2
	c0.8,0,1.5-0.1,2.3-0.2l26.8-2.2l22.5-2.8c2.2-0.3,4.4-0.5,6.6-1l13.6-2.3l6.8-1.2c1.5-0.3,3-0.6,4.4-0.9c0.8-0.2,1.6-0.3,2.4-0.5
	l13.4-3c1.6-0.3,3.2-0.7,4.7-1.2c0.7-0.2,1.4-0.4,2.2-0.6l13.4-3.6c1.5-0.4,3-0.9,4.4-1.3c0.8-0.2,1.5-0.5,2.3-0.7l7.6-2.4
	c1.9-0.6,3.8-1.2,5.7-1.9c1.5-0.5,3-1.1,4.4-1.6c2.9-1,5.8-2.1,8.7-3.2l7.8-3.2c1.7-0.7,3.5-1.4,5.2-2.3l6.4-3
	c1.2-0.5,2.3-1.1,3.3-1.6l3.2-1.7c0.4-0.2,0.7-0.4,1.1-0.6c0.7-0.3,1.3-0.7,2-1.1C898.1,94.5,895.1,107.5,878,118.5z M904.2,66
	l-4.1,2.6c-0.3,0.2-0.7,0.4-1,0.6l-4.8,2.7c-0.7,0.4-1.3,0.7-2,1c-0.4,0.2-0.8,0.4-1.1,0.6l-3.2,1.6c-0.9,0.5-2,1-3.1,1.5l-6.5,3
	c-1.6,0.8-3.3,1.5-5,2.2l-7.8,3.2c-2.8,1.1-5.8,2.1-8.6,3.2c-1.5,0.5-3,1.1-4.5,1.6c-1.8,0.7-3.6,1.2-5.4,1.8l-7.6,2.4
	c-0.8,0.2-1.6,0.5-2.3,0.7c-1.4,0.4-2.8,0.9-4.2,1.3l-13.3,3.6c-0.7,0.2-1.5,0.4-2.2,0.6c-1.5,0.4-2.9,0.8-4.4,1.1l-13.4,3
	c-0.8,0.2-1.6,0.3-2.4,0.5c-1.4,0.3-2.9,0.6-4.3,0.9l-20.3,3.5c-2.1,0.4-4.2,0.6-6.4,0.9l-22.3,2.8l-26.7,2.2
	c-0.7,0.1-1.4,0.1-2.1,0.2l-30.6,1.2l-34-0.1l-13.5-0.6l-13.6-0.7l-13.2-0.7c-3.5-0.2-7.1-0.4-10.5-0.5l-4.6-0.1
	c-3.3,0-6.7-0.1-9.9,0.1c-18.6,0.4-33.9,2.8-46.8,7.3l-1.1,0.4c-1.4,0.5-2.8,1-4.1,1.6c-0.3,0.1-0.6,0.3-1,0.4
	c-0.5,0.2-1.1,0.4-1.6,0.7l-3.6,1.7l-3.6,1.9l-2.3,1.4c-0.8,0.4-1.6,0.9-2.3,1.5l-2.1,1.4l-3.2,2.4l-1.1,0.9
	c-0.2,0.2-0.5,0.4-0.7,0.6c-0.4,0.3-0.8,0.7-1.3,1.1c-2.5,2.3-5,4.7-7.5,7.6c-2.5,3-4.7,5.9-6.7,8.8c-2.4,3.5-4.4,6.7-6.1,9.9
	c-3.8,6.6-7.2,13.7-11.3,22.2l-5.7,12c-2.1,4.5-4.1,8.5-6,12.3c-3.9,7.5-8.6,16.3-14.3,24.7c-11.4,17.4-25.6,32.3-41,43.3
	c-7.6,5.5-16,10.5-25.6,15.2c-4.4,2.2-8.9,4.1-13.5,5.9c-1.8,0.8-3.8,1.5-5.6,2.2l-2.3,0.8c-0.7,0.3-1.5,0.5-2.2,0.8l-3.5,1.1
	c-2.3,0.8-4.6,1.5-6.8,2.1l-19.4,5.6c-2.7,0.8-5.4,1.6-8.1,2.4c-1.5,0.4-3,0.9-4.5,1.3c-3.6,1-7.1,2.2-10.5,3.3l-8.1,2.6l-12.1,4.3
	l-11.6,4.6l-9.9,4.4l-6.8,3.5c-14.1,7.4-26.1,16.8-36.9,28.9c-9.4,10.7-18.3,24.1-27.1,40.9c-2.2,4.2-6,7.3-10.5,8.5
	c-4.1,1.1-8.3,0.6-11.7-1.5c-1.5-0.9-3.8-3.8-4.9-9c-0.7-2.8-1.5-8.9,0.5-16.3c0-0.1,0-0.1,0.1-0.2c0.9-3.1,2.3-6.4,4.5-9.8l0,0
	c2.6-4.3,5.2-8.4,7.4-11.9l7.1-10.2l6.4-8.1c0.5-0.6,0.9-1.2,1.4-1.8l7.4-8.1c1.1-1.2,2.3-2.3,3.5-3.4c0.6-0.6,1.2-1.1,1.8-1.8
	c2.8-2.8,6-5.4,9-7.9c0.7-0.6,1.4-1.1,2.1-1.7l1.4-1.2c0.3-0.2,0.6-0.4,0.9-0.6c0.2-0.1,0.4-0.3,0.5-0.4l3-2.1
	c0.7-0.5,1.4-1,2.1-1.4c1.3-0.9,2.7-1.9,3.9-2.7l9.4-5.7c0.7-0.4,1.4-0.7,2.1-1.1l1.1-0.6c17.8-9.6,36.1-16.3,51.6-21.5l1.7-0.6
	c3.7-1.2,7.5-2.5,11.2-3.7c1.5-0.5,3-1,4.6-1.4c2.7-0.9,5.6-1.8,8.4-2.6l12.9-3.9l5.9-1.9c2-0.6,4-1.3,5.8-2
	c16.3-5.9,30.3-13.5,41.5-22.5c3.2-2.5,6.1-5.2,8.7-7.7c0.4-0.4,0.8-0.8,1.2-1.2c0.9-0.9,1.9-1.9,2.8-2.9c0.4-0.5,0.9-0.9,1.3-1.4
	c0.8-0.9,1.7-1.9,2.5-2.8c2.5-2.9,4.8-6,7.2-9.2c2.1-3,4.4-6.3,6.5-9.9c3.8-6.4,7.7-13.4,11.7-21.5c2.6-5.2,5.1-10.6,7.7-16.2
	c1.2-2.5,2.3-5,3.5-7.5c2.1-4.5,4.4-8.9,6.2-12.4c2-4,4.4-8.2,7-12.6c2.4-4,5.1-8.3,8.1-12.6c2.9-4.1,6.2-8.1,9.7-12.1
	c3.7-4.1,7.5-7.8,11.4-11.1c0.7-0.6,1.4-1.2,2.1-1.7l2.6-2.1l4.9-3.5l3.4-2.2c1.2-0.8,2.3-1.5,3.4-2l1-0.6c0.8-0.5,1.7-1,2.5-1.4
	l5.4-2.7l5.4-2.4c0.8-0.3,1.6-0.7,2.5-1l1.2-0.5c2.1-0.9,4.2-1.6,6.5-2.3l0.8-0.3c9.1-2.9,18.7-5,29.3-6.4c9-1.2,18.4-1.8,28.8-1.9
	c4-0.1,8,0,11.8,0.1l4,0.1c4.1,0.2,8.2,0.4,12.3,0.7l26.2,1.8l12.9,0.9l32.5,1l29.2-0.3c0.7,0,1.4-0.1,2.1-0.1l25.3-1.4l14.5-1.4
	l6.7-0.6c2-0.2,4.2-0.4,6.2-0.7l12.7-1.8l6.4-0.9c1.4-0.2,2.7-0.5,4.1-0.7c0.7-0.1,1.5-0.3,2.2-0.4l12.5-2.3
	c1.5-0.2,2.9-0.6,4.3-0.9c0.7-0.2,1.3-0.3,2-0.5l12.4-2.8c1.4-0.3,2.7-0.7,4-1c0.7-0.2,1.5-0.4,2.2-0.6l7.1-1.9
	c1.7-0.5,3.5-0.9,5.2-1.5c1.5-0.5,2.9-0.9,4.4-1.4c2.5-0.8,5.1-1.6,7.6-2.5l5.9-2.1c0.6-0.2,1.2-0.4,1.8-0.7c1.4-0.5,2.8-1,4.1-1.6
	l5.7-2.3c1.1-0.4,2-0.9,2.9-1.3l2.8-1.3c0.3-0.1,0.6-0.3,1-0.4c0.6-0.3,1.2-0.6,1.8-0.9l3.9-2c0.3-0.2,0.6-0.3,0.9-0.5l3.7-2
	l8.3-5.1c3,1.6,8.5,5.3,10.2,10.2C910.6,53.6,910.6,61.7,904.2,66z"/>
<g>
	<path class="st3" d="M266,639.5h79.7l-7.4,48.2H168.5L257.1,582c29.3-35.2,38.9-54.1,38.9-71.9c0-23-16.7-38.5-37.8-38.5
		s-37.8,16.3-37.8,38.2c0,10,3.3,19.6,7.8,28.2l-50.8,6.3c-4.8-10-8.2-22.2-8.2-36c0-47.4,38.9-85.3,89.3-85.3c49.7,0,89,36,89,85.6
		c0,30.8-15.2,58.6-56,101.6L266,639.5z"/>
	<path class="st3" d="M385.4,659.5c0-18.2,14.8-32.2,33.7-32.2c18.5,0,33.4,14.1,33.4,32.2s-14.8,32.2-33.4,32.2
		C400.2,691.7,385.4,677.7,385.4,659.5z"/>
	<path class="st3" d="M477.6,557.9c0-76.7,38.9-134.2,102.7-134.2c63.8,0,102.7,57.5,102.7,134.2s-38.9,134.2-102.7,134.2
		C516.6,692.1,477.6,634.7,477.6,557.9z M629.6,557.9c0-48.2-15.9-85.6-49.3-85.6c-33.7,0-49.3,37.4-49.3,85.6
		c0,47.8,15.6,85.6,49.3,85.6C613.7,643.6,629.6,605.7,629.6,557.9z"/>
</g>
</svg>
