<?xml version="1.0" encoding="utf-8"?>
<!-- Generator: Adobe Illustrator 23.0.3, SVG Export Plug-In . SVG Version: 6.00 Build 0)  -->
<svg version="1.1" id="Layer_1" xmlns="http://www.w3.org/2000/svg" xmlns:xlink="http://www.w3.org/1999/xlink" x="0px" y="0px"
	 viewBox="0 0 177.2 29.8" style="enable-background:new 0 0 177.2 29.8;" xml:space="preserve">
<style type="text/css">
	.st0{fill:none;}
	.st1{enable-background:new    ;}
	.st2{fill:#FFFFFF;stroke:#8C2122;stroke-width:0.25;stroke-miterlimit:10;}
	.st3{fill:#FFFFFF;}
	.st4{fill:#8C2122;}
	.st5{fill:#653614;}
</style>
<rect x="-42.2" y="14.5" class="st0" width="287.5" height="61.1"/>
<g class="st1">
	<path class="st2" d="M46.5,5.5c1.3,0,3.1,0.1,4.6,1.1c1.8,1.2,2.6,3.2,2.6,5.1c0,1.2-0.3,3.1-2,4.6c-1.7,1.4-3.6,1.6-5.1,1.6h-1.5
		v8.5h-3.2v-21h4.6V5.5z M45.1,15h1.4c2.8,0,4.1-1.4,4.1-3.3c0-1.2-0.5-3.2-4.1-3.2h-1.4V15z"/>
	<path class="st2" d="M65.9,22.9h-6.3L58,26.4h-2.4l7.3-15.6l7,15.6h-2.4L65.9,22.9z M65,20.8l-2.2-5l-2.3,5H65z"/>
	<path class="st2" d="M75.6,13.9v12.6h-2.3V13.9h-3.4v-2.1h9v2.1H75.6z"/>
	<path class="st2" d="M83.9,17.6h6.3v-5.8h2.2v14.7h-2.2v-6.8h-6.3v6.8h-2.2V11.8h2.2V17.6z"/>
	<path class="st2" d="M104,13.9h-5.1v3.7h4.9v2.1h-4.9v6.7h-2.2V11.8h7.4v2.1H104z"/>
	<path class="st2" d="M109.5,11.8v14.7h-2.2V11.8H109.5z"/>
	<path class="st2" d="M113.7,26.5V10.8L124.4,22V11.8h2.2v15.6L116,16.2v10.3H113.7z"/>
	<path class="st2" d="M133.9,11.8c2.1,0,3.8,0.2,5.5,1.4c1.8,1.3,2.8,3.5,2.8,5.9s-1,4.6-3,5.9c-1.7,1.2-3.3,1.4-5.4,1.4h-3V11.8
		H133.9z M133.1,24.3h1c1.1,0,2.6-0.1,3.9-1c1-0.8,2-2.2,2-4.2c0-1.9-0.9-3.5-2-4.2c-1.3-0.9-2.8-1-3.9-1h-1V24.3z"/>
	<path class="st2" d="M153.8,13.9h-5.9v3.7h5.7v2.1h-5.7v4.6h5.9v2.1h-8.1V11.8h8.1V13.9z"/>
	<path class="st2" d="M160,11.8c1.8,0,2.9,0.2,3.9,0.9c1.6,1.1,1.7,2.8,1.7,3.5c0,2.1-1.3,3.7-3.3,4.1l4.6,6.3h-2.6l-4.2-6h-0.4v6
		h-2.2V11.8H160z M159.7,18.5h0.7c0.6,0,3.1-0.1,3.1-2.4c0-2.1-2-2.3-3.1-2.3h-0.8v4.7H159.7z"/>
</g>
<g>
	<path class="st3" d="M172.5,13.2c0,1.1-0.9,2-2,2c-1.1,0-2-0.9-2-2c0-1.1,0.9-2,2-2C171.7,11.2,172.5,12.1,172.5,13.2z M169,13.2
		c0,0.9,0.6,1.6,1.5,1.6c0.9,0,1.5-0.7,1.5-1.6c0-0.9-0.6-1.6-1.5-1.6C169.6,11.6,169,12.3,169,13.2z M170.2,14.2h-0.5v-2
		c0.2,0,0.4-0.1,0.8-0.1c0.4,0,0.5,0.1,0.7,0.1c0.1,0.1,0.2,0.2,0.2,0.4c0,0.2-0.2,0.4-0.4,0.5v0c0.2,0.1,0.3,0.2,0.4,0.5
		c0.1,0.3,0.1,0.4,0.1,0.5H171c-0.1-0.1-0.1-0.3-0.2-0.5c0-0.2-0.2-0.3-0.4-0.3h-0.2V14.2z M170.2,13.1h0.2c0.3,0,0.5-0.1,0.5-0.3
		c0-0.2-0.1-0.3-0.4-0.3c-0.1,0-0.2,0-0.3,0V13.1z"/>
</g>
<g>
	<path class="st3" d="M25,5.3c-0.1,0-0.2,0-0.4,0l-0.1,0l-0.1,0c-0.1,0-0.3,0-0.4,0c-0.7,0-1.3,0.1-1.8,0.3l0,0
		c-0.1,0-0.1,0-0.2,0.1c0,0,0,0,0,0c0,0,0,0-0.1,0l-0.1,0.1l-0.1,0.1c0.6,0.2,2.2,0.6,4.2,0.9L25,5.3L25,5.3z"/>
	<path class="st3" d="M29.3,9.4c-1.7,0-3.3-0.3-4.6-0.6l0.4,1c0.8,0.2,1.5,0.3,2.3,0.3c2.4,0.1,3-0.3,3.2-0.7c-0.2,0-0.4,0-0.6,0
		C29.8,9.4,29.5,9.4,29.3,9.4L29.3,9.4z"/>
	<path class="st3" d="M20.6,6.8c-0.1,0.1-0.1,0.2-0.2,0.3c0.3,0.2,1.4,0.7,2.9,1.1c0.5,0.2,1.1,0.4,1.8,0.5l-0.4-1
		c-2-0.4-3.5-0.9-4-1.1C20.7,6.7,20.6,6.7,20.6,6.8L20.6,6.8z"/>
	<path class="st3" d="M4.8,22.8l0.3,1.7c0,0,0.1-0.1,0.2-0.2c0.2-0.2,0.5-0.4,0.9-0.7c0.7-0.5,1.7-1.2,2.9-1.7l0.3-2.3
		C7.6,20.6,6.1,21.6,4.8,22.8C4.9,22.8,4.8,22.8,4.8,22.8L4.8,22.8z"/>
	<path class="st3" d="M21.4,6L21.3,6l0,0c0,0,0,0,0,0c0,0,0,0,0,0c-0.1,0.1-0.2,0.2-0.3,0.3c0,0,0,0,0,0c0.7,0.2,2.5,0.8,4.8,1.2
		l-0.4-0.8c-0.2,0-0.4-0.1-0.6-0.1C23,6.4,21.7,6,21.4,6L21.4,6L21.4,6z"/>
	<path class="st3" d="M8.9,16.3c-0.2,0.3-0.3,0.5-0.5,0.9c-0.1,0.2-0.2,0.3-0.4,0.4c0,0.8,0.5,1.6,1.4,1.9c0.7,0.3,1.4,0.3,2-0.1
		c0,0,0,0,0,0C10.1,18.3,9.2,16.7,8.9,16.3L8.9,16.3z"/>
	<path class="st3" d="M19.4,9c-0.1,0.2-0.2,0.4-0.3,0.6c0.8,0.6,2.7,1.7,4.6,2.1l-0.1-1.1C21.6,10.1,19.9,9.2,19.4,9
		C19.4,9,19.4,9,19.4,9L19.4,9z"/>
	<path class="st3" d="M20,8c1,0.5,2.9,1.3,4.9,1.8l-0.4-1c-0.5-0.1-0.9-0.2-1.3-0.4c-1.5-0.5-2.6-1-2.9-1.2C20.2,7.5,20.1,7.7,20,8
		L20,8z"/>
	<path class="st3" d="M19.7,8.5c-0.1,0.1-0.1,0.2-0.1,0.3c0.5,0.2,2.7,1.3,4.9,1.9l-0.3-0.9c-1.8-0.5-3.4-1.2-4.3-1.6L19.7,8.5
		L19.7,8.5z"/>
	<path class="st3" d="M5.1,24.7l0,0.2h2.5c0.1-0.1,0.5-0.5,1-0.6L9,22.2C6.9,23,5.3,24.5,5.1,24.7L5.1,24.7z"/>
	<path class="st3" d="M26.5,11.3c-0.8,0-1.8-0.3-2.7-0.5l0.1,1.1c0.4,0.1,0.7,0.1,1.1,0.2c1.3,0.1,2.1,0,2.4-0.3
		c0.1-0.1,0.2-0.3,0.2-0.5c-0.2,0-0.4,0-0.6,0C26.8,11.3,26.6,11.3,26.5,11.3L26.5,11.3z"/>
	<path class="st3" d="M29.2,10.3c-0.3,0-0.7,0.1-1.2,0.1c-0.2,0-0.4,0-0.6,0c-1,0-2-0.2-3-0.5l0.3,0.9c0.6,0.2,1.2,0.3,1.8,0.3
		c1.6,0.1,2.3-0.2,2.5-0.5C29.1,10.4,29.2,10.3,29.2,10.3L29.2,10.3z"/>
	<path class="st3" d="M18.8,10.1c-0.1,0.2-0.2,0.3-0.3,0.4c0.3,0.3,2,1.7,4,2.2v-1.1c-1.5-0.5-2.9-1.3-3.5-1.8
		C19,9.9,18.9,10,18.8,10.1L18.8,10.1z"/>
	<path class="st3" d="M3.9,11H2.9L3,11.6c0.2-0.2,0.4-0.3,0.7-0.4C3.7,11.1,3.8,11.1,3.9,11L3.9,11z"/>
	<path class="st3" d="M7.8,13.1c0.9-0.4,1.7-0.9,2.8-1.7V11h-3c-0.3,0.5-0.9,0.8-1.6,1.2c-0.8,0.4-1.7,0.8-2.6,1.7l0.4,2.2
		C5.3,14.3,6.5,13.7,7.8,13.1L7.8,13.1z"/>
	<path class="st3" d="M2.2,9.2h9.3c0.1,0,0.2-0.1,0.2-0.2V8.8c0-0.1-0.1-0.2-0.2-0.2H2.2C2.1,8.6,2,8.6,2,8.8V9
		C2,9.2,2.1,9.2,2.2,9.2L2.2,9.2z"/>
	<path class="st3" d="M7.4,11H4.2c-0.1,0.1-0.3,0.2-0.4,0.3c-0.3,0.1-0.5,0.3-0.7,0.5l0.3,1.9c0.9-0.8,1.8-1.3,2.5-1.6
		C6.6,11.7,7.1,11.4,7.4,11L7.4,11z"/>
	<path class="st4" d="M11.2,8.3c0.1-0.2,0.3-0.3,0.4-0.3c0.3,0,0.6,0.2,1,0.8c0.5,0.6,1.6,0.6,2.1,0.5c-0.6-0.5-0.8-1.2-0.9-1.5
		c-0.1-0.4-0.5-0.6-0.5-0.6c0,0-0.1-0.1-0.1-0.1c0,0,0-0.1,0.1-0.1c0.1,0,1.7-0.2,3.4,2.4c0,0,0,0,0,0C17,9.3,17.1,9.1,17.1,9
		c0.2-0.3,0.3-0.5,0.5-0.9c0.1-0.2,0.2-0.4,0.3-0.7c0-0.1,0.1-0.2,0.1-0.3c0.1-0.2,0.2-0.4,0.3-0.5c0.1-0.2,0.2-0.3,0.3-0.5
		c0.1-0.1,0.2-0.3,0.2-0.4c-0.1-0.2-0.7-1.1-1.9-1.8c0,0,0,0-0.1-0.1c0,0,0-0.1,0-0.1c0.5-0.7,0.4-1.6,0.4-1.9
		c-0.5,0.3-1.2,0.7-2.1,0.9c-1,0.2-1.9,0.1-2.8-0.4C10.5,1.6,8.5,2,7.3,2.7c0,0-0.1,0-0.1,0c0,0,0,0-0.1-0.1c-0.3-0.7-1-1.1-1.2-1.2
		C5.9,2.1,5.1,2.6,3.4,3.1c-1.1,0.3-2,1.1-2.3,2.1c-0.3,1,0.1,2.1,1.1,3.1H11.2L11.2,8.3z"/>
	<path class="st3" d="M8,18.3c-1.7,0.4-3.3,2.1-3.5,2.3l0.3,2c1.2-1.1,2.6-2.1,4.3-3.1C8.6,19.2,8.2,18.8,8,18.3L8,18.3z"/>
	<path class="st3" d="M7,16.2c0-0.1,0.1-0.3,0.2-0.4c0.1-0.2,0.2-0.3,0.3-0.5l0,0l0.3-0.4l0.3-0.3c0,0,0-0.1,0.1-0.1l0,0l0.3-0.3
		C8.5,14,8.5,14,8.6,13.9c0,0,0,0,0.1-0.1c0.1-0.1,0.3-0.2,0.4-0.3c0,0,0.1,0,0.1-0.1l0.1,0c0,0,0,0,0,0c0,0,0,0,0,0l0.1-0.1
		c0,0,0.1,0,0.1-0.1c0.1,0,0.1-0.1,0.2-0.1l0.4-0.2c0,0,0.1,0,0.1,0l0,0c0.2-0.1,0.3-0.2,0.5-0.2v-0.9c-1,0.8-1.9,1.2-2.7,1.6
		c-1.3,0.7-2.5,1.3-4.1,3.1l0.3,1.9C4.5,17.8,5.8,16.6,7,16.2L7,16.2z"/>
	<polygon class="st3" points="6.5,28.4 7.2,28.4 8.2,26.4 5.6,26.4 6.5,28.4 	"/>
	<path class="st3" d="M5,25.1c-0.1,0-0.3,0.1-0.3,0.3V26c0,0.1,0.1,0.3,0.3,0.3h3.8C8.9,26.2,9,26.1,9,26v-0.6
		c0-0.1-0.1-0.3-0.3-0.3H5L5,25.1z"/>
	<path class="st3" d="M8,24.9h0.6l0-0.4C8.4,24.6,8.1,24.8,8,24.9L8,24.9z"/>
	<path class="st3" d="M7.9,17.6c-0.1,0-0.1,0-0.2,0c-0.1,0-0.3,0-0.4-0.1C7.1,17.4,7,17.2,7,17c0-0.1-0.1-0.3,0-0.6
		c-1.3,0.5-2.6,1.8-2.8,2.1l0.3,1.8c0.5-0.5,1.9-1.8,3.5-2.3C7.9,17.9,7.9,17.7,7.9,17.6L7.9,17.6z"/>
	<path class="st3" d="M12.2,10.4V9.9c0-0.3-0.2-0.5-0.5-0.5h-0.3H2.2H2c-0.3,0-0.5,0.2-0.5,0.5v0.4c0,0.3,0.2,0.5,0.5,0.5h9.8
		C12,10.8,12.2,10.6,12.2,10.4L12.2,10.4z"/>
	<path class="st3" d="M24.3,14.5c-0.4,0-0.9,0-1.5-0.1c-0.7-0.1-1.3-0.3-1.8-0.6l-0.1,1c0.6,0.2,1.1,0.4,1.7,0.6
		c1.1,0.2,1.8,0.2,2.2-0.1c0.2-0.2,0.3-0.5,0.3-0.8C24.8,14.4,24.6,14.5,24.3,14.5L24.3,14.5z"/>
	<path class="st3" d="M25.1,13.3c-0.5,0-1,0-1.7-0.1c-0.5-0.1-0.9-0.2-1.3-0.3v1.1c0.3,0.1,0.5,0.1,0.8,0.2c1.5,0.2,2.3,0.2,2.6-0.1
		c0.2-0.2,0.2-0.4,0.2-0.7C25.5,13.3,25.3,13.3,25.1,13.3L25.1,13.3z"/>
	<path class="st3" d="M26,12.2c-0.3,0-0.6,0-1-0.1c-0.7-0.1-1.5-0.2-2.2-0.5v1.1c0.2,0,0.4,0.1,0.6,0.1c1.7,0.2,2.7,0.2,3.1-0.2
		c0.1-0.1,0.2-0.3,0.2-0.5C26.5,12.2,26.2,12.2,26,12.2L26,12.2z"/>
	<path class="st3" d="M17,15l-0.3,1.1c0.4,0.4,0.9,0.7,1.4,1.1c0.8,0.5,1.5,0.7,1.9,0.6c0.2-0.1,0.4-0.3,0.5-0.5
		c-0.3-0.1-0.7-0.3-1.2-0.5C18.4,16.3,17.6,15.7,17,15L17,15z"/>
	<path class="st3" d="M19.8,14.4l-0.2,1c0.6,0.3,1.1,0.6,1.7,0.9c1,0.4,1.6,0.2,1.9,0c0.2-0.2,0.4-0.4,0.4-0.6c-0.3,0-0.6-0.1-1-0.2
		C21.6,15.3,20.6,14.9,19.8,14.4L19.8,14.4z"/>
	<path class="st4" d="M33.7,8.7c-0.1,0.3-0.5,0.7-1.1,1.1c-0.5,0.2-1.2,0.5-2.3,0.5c-0.2,0-0.5,0-0.8,0c0,0-0.1,0-0.1,0
		c0,0.1-0.1,0.3-0.2,0.5c-0.2,0.2-0.6,0.4-1.4,0.5c0,0.2-0.1,0.5-0.3,0.6c-0.2,0.1-0.4,0.2-0.7,0.3c0,0.3-0.1,0.6-0.3,0.7
		c0,0,0,0-0.1,0.1c4.1,1,6-0.5,6.7-1.3c0.8-0.9,1-2.1,0.7-3.1C33.8,8.6,33.8,8.7,33.7,8.7L33.7,8.7z"/>
	<path class="st3" d="M18.5,14.8l-0.1,1.1c0.3,0.3,0.7,0.5,1.1,0.7c1,0.5,1.7,0.7,2.1,0.5c0.2-0.1,0.3-0.2,0.4-0.5
		c-0.2,0-0.5-0.1-0.7-0.2C20.3,16.1,19.3,15.6,18.5,14.8L18.5,14.8z"/>
	<path class="st3" d="M18,11.1c0.1,0.2,0.5,0.7,1.2,1.3c0.6,0.5,1.4,1.1,2.6,1.5v-1.1c-1.7-0.6-3.1-1.8-3.4-2
		C18.3,10.8,18.2,11,18,11.1L18,11.1z"/>
	<path class="st3" d="M31.8,8c-0.7,0.1-1.5,0.1-2.2,0.1c-1.6,0-3.2-0.2-4.6-0.4l0.4,1c1.2,0.3,2.5,0.5,4,0.5c0.2,0,0.5,0,0.7,0
		c2.9-0.1,3.9-0.7,4.2-1.2c0.1-0.2,0.1-0.3,0.1-0.4C33.7,7.8,32.8,7.9,31.8,8L31.8,8z"/>
	<path class="st3" d="M36.7,3.6C36.7,3.6,36.7,3.6,36.7,3.6l-0.2,0.1c0,0-0.1,0-0.1,0.1l-0.3,0.1c-0.1,0-0.1,0.1-0.2,0.1l-0.3,0.1
		c-0.1,0-0.2,0.1-0.4,0.1c-0.1,0-0.1,0-0.2,0.1c-0.1,0-0.2,0.1-0.2,0.1l-0.3,0.1c0,0-0.1,0-0.1,0c-0.1,0-0.1,0-0.2,0.1l-0.5,0.1
		c0,0-0.1,0-0.1,0c-0.1,0-0.1,0-0.2,0l-0.5,0.1c0,0-0.1,0-0.1,0c-0.1,0-0.1,0-0.2,0l-0.3,0l-0.6,0.1c-0.1,0-0.2,0-0.3,0l-0.9,0.1
		l-1.1,0.1c0,0-0.1,0-0.1,0l-1.3,0l-1.4,0l-0.6,0l-0.6,0l-0.4,0l0.8,1.4c0.8,0.1,1.6,0.1,2.5,0.1c1,0,2-0.1,3-0.3
		C34,6.1,35.3,5.7,36,5.2C36.7,4.8,36.8,4.3,36.7,3.6C36.8,3.5,36.7,3.5,36.7,3.6L36.7,3.6z"/>
	<path class="st3" d="M31.6,6.8c-1,0.2-2,0.3-3,0.3c-1.1,0-2.2-0.1-3.1-0.2l0.4,0.9C27,7.8,28.3,8,29.5,8c0.7,0,1.5,0,2.2-0.1
		c2.3-0.3,3.7-0.7,4.2-1.3c0.2-0.3,0.2-0.7,0.2-1.1C35.3,5.9,34.1,6.3,31.6,6.8L31.6,6.8z"/>
	<path class="st3" d="M36.8,1.9l-0.3,0.2l-0.1,0.1c0,0,0,0,0,0l-0.2,0.1c0,0,0,0-0.1,0c0,0,0,0,0,0l-0.1,0.1c0,0-0.1,0-0.1,0.1
		l-0.2,0.1c-0.1,0-0.1,0-0.2,0.1c0,0,0,0-0.1,0l-0.2,0.1c-0.1,0-0.2,0.1-0.3,0.1c-0.1,0-0.1,0-0.2,0.1c-0.1,0-0.1,0-0.2,0.1L34.1,3
		c0,0-0.1,0-0.1,0c-0.1,0-0.1,0-0.2,0l-0.5,0.1c0,0-0.1,0-0.1,0c-0.1,0-0.1,0-0.2,0l-0.5,0.1c0,0-0.1,0-0.1,0c-0.1,0-0.1,0-0.2,0
		l-0.3,0l-0.5,0.1c-0.1,0-0.2,0-0.3,0l-0.3,0l-0.6,0.1l-1,0.1c0,0-0.1,0-0.1,0l-1.2,0l-1.3,0l-0.5,0l-1.1-0.1c-0.2,0-0.3,0-0.5,0
		l-0.2,0c-0.2,0-0.3,0-0.5,0c-0.4,0-0.8,0-1.2,0.1c-0.4,0.1-0.8,0.1-1.2,0.3l0,0c-0.1,0-0.2,0.1-0.3,0.1l0,0c0,0-0.1,0-0.1,0L21,4.1
		l-0.2,0.1c0,0-0.1,0-0.1,0.1l0,0c0,0-0.1,0.1-0.1,0.1l-0.1,0.1l-0.2,0.1l-0.1,0.1c0,0-0.1,0-0.1,0.1c-0.2,0.1-0.3,0.3-0.5,0.5
		c-0.1,0.2-0.3,0.3-0.4,0.5c-0.1,0.2-0.2,0.3-0.3,0.5c-0.1,0.2-0.2,0.4-0.3,0.5c-0.1,0.1-0.2,0.3-0.3,0.5c0,0.1-0.1,0.2-0.1,0.3
		C18,7.8,17.9,8,17.8,8.2c-0.2,0.3-0.3,0.6-0.5,0.9c-0.1,0.1-0.2,0.3-0.3,0.4c-0.1,0.1-0.2,0.3-0.3,0.4c0,0-0.1,0.1-0.1,0.1
		c0,0,0,0-0.1,0.1c0,0-0.1,0.1-0.1,0.1c0,0,0,0,0,0c-0.1,0.1-0.2,0.2-0.4,0.3c-0.5,0.4-1,0.7-1.7,0.9c-0.1,0-0.2,0.1-0.2,0.1
		l-0.2,0.1l-0.5,0.2c-0.1,0-0.2,0.1-0.3,0.1c-0.1,0-0.1,0-0.2,0.1c-0.2,0-0.3,0.1-0.5,0.1l-0.1,0c-0.6,0.2-1.4,0.5-2.1,0.9l0,0
		c0,0-0.1,0-0.1,0l-0.4,0.2c-0.1,0-0.1,0.1-0.2,0.1c0,0-0.1,0-0.1,0.1l-0.1,0.1c0,0,0,0,0,0c0,0,0,0,0,0l-0.1,0c0,0-0.1,0-0.1,0.1
		C9,13.8,8.9,13.9,8.8,14c0,0-0.1,0-0.1,0.1c0,0-0.1,0.1-0.1,0.1l-0.3,0.3c0,0,0,0-0.1,0.1L8,15l-0.3,0.4c-0.1,0.1-0.2,0.3-0.3,0.5
		l0,0c-0.1,0.1-0.1,0.3-0.2,0.4c0,0,0,0,0,0c-0.1,0.3,0,0.5,0,0.7c0,0.2,0.1,0.3,0.2,0.4c0.1,0.1,0.3,0.1,0.5,0.1
		C8,17.3,8.2,17.2,8.3,17c0.4-0.7,0.7-1.2,1.1-1.7c0.4-0.5,0.9-0.9,1.5-1.2l0.3-0.1l0.4-0.2l0.5-0.2l0.5-0.2l0.3-0.1
		c0.1,0,0.3-0.1,0.4-0.1c0.1,0,0.1,0,0.2-0.1c0.1,0,0.2-0.1,0.3-0.1l0.8-0.2c0.1,0,0.2-0.1,0.3-0.1l0.1,0c0,0,0.1,0,0.1,0l0.1,0
		c0.1,0,0.2-0.1,0.2-0.1c0.2-0.1,0.4-0.2,0.5-0.2c0.4-0.2,0.7-0.4,1-0.6c0.6-0.4,1.2-1.1,1.7-1.8c0.2-0.3,0.4-0.7,0.6-1
		c0.1-0.2,0.2-0.3,0.2-0.5L19.7,8c0.2-0.3,0.3-0.6,0.5-0.9c0.1-0.1,0.2-0.3,0.3-0.4c0.1-0.1,0.2-0.2,0.3-0.4C20.8,6.2,20.9,6.1,21,6
		c0,0,0,0,0.1,0c0,0,0,0,0,0l0,0l0.1-0.1l0.1-0.1c0,0,0.1,0,0.1-0.1l0.1-0.1l0.1-0.1l0.1-0.1c0,0,0,0,0.1,0c0,0,0,0,0,0
		c0.1,0,0.1,0,0.2-0.1l0,0c0.5-0.2,1.2-0.3,1.9-0.3c0.1,0,0.3,0,0.4,0l0.2,0c0.1,0,0.3,0,0.4,0l0.5,0l0.6,0l0.6,0l1.4,0l1.2,0
		c0,0,0.1,0,0.1,0L30.6,5l0.9-0.1c0.1,0,0.2,0,0.3,0l0.8-0.1c0.1,0,0.1,0,0.2,0c0,0,0.1,0,0.1,0l0.5-0.1c0.1,0,0.1,0,0.2,0
		c0,0,0.1,0,0.1,0l0.5-0.1c0.1,0,0.1,0,0.2-0.1c0,0,0.1,0,0.1,0l0.3-0.1c0.1,0,0.1,0,0.2-0.1C35,4,35.1,4,35.2,4
		c0.1,0,0.2-0.1,0.3-0.1l0.3-0.1c0.1,0,0.1-0.1,0.2-0.1l0.3-0.1c0,0,0.1,0,0.1-0.1l0.1-0.1c0,0,0,0,0,0c0,0,0.1,0,0.1,0l0.2-0.1
		c0,0,0,0,0,0l0.2-0.1c0.3-0.2,0.3-0.5,0.2-0.8C37.2,2.1,37,2,36.8,1.9L36.8,1.9z"/>
	<path class="st3" d="M15.5,12.8c-0.1,0-0.2,0.1-0.2,0.1l-0.1,0c0,0-0.1,0-0.1,0l-0.1,0c0,0-0.1,0-0.1,0c0.3,1.3,0.9,2.2,1.7,3
		l0.3-1.2C16.3,14.2,15.8,13.5,15.5,12.8C15.5,12.8,15.5,12.8,15.5,12.8L15.5,12.8z"/>
	<path class="st3" d="M12.9,13.6l-0.3,0.1l-0.3,0.1c0.2,1,0.6,2,1.2,2.9l0.6-1.1c-0.5-0.6-0.8-1.4-0.9-2.1
		C13.1,13.5,13,13.5,12.9,13.6L12.9,13.6z"/>
	<path class="st3" d="M16,12.5c-0.1,0.1-0.2,0.1-0.3,0.1c0.5,1.2,1.3,2.3,2.4,3.1l0.1-1.1c-0.7-0.6-1.4-1.4-1.8-2.4
		C16.3,12.4,16.2,12.5,16,12.5L16,12.5z"/>
	<path class="st3" d="M13.8,13.3c-0.1,0-0.2,0.1-0.3,0.1c0,0-0.1,0-0.1,0c0.1,1.1,0.8,2.1,1.6,2.9l0.4-1.5c-0.3-0.5-0.6-1.1-0.8-1.8
		L13.8,13.3L13.8,13.3z"/>
	<path class="st3" d="M17.1,11.9c-0.1,0.1-0.3,0.2-0.5,0.3c0.6,1.4,1.7,2.4,2.8,3.1l0.2-1C18.6,13.7,17.7,12.8,17.1,11.9
		C17.2,11.9,17.1,11.9,17.1,11.9L17.1,11.9z"/>
	<path class="st3" d="M17.3,11.7c0.7,1.2,1.9,2.2,3.3,2.9l0.1-1c-0.7-0.3-1.3-0.8-1.7-1.1c-0.6-0.6-1-1.1-1.2-1.3
		C17.7,11.4,17.5,11.6,17.3,11.7L17.3,11.7z"/>
	<path class="st3" d="M12.8,16l-0.7,1.5c0.3,0.4,0.6,0.8,1.1,1.2c0.5,0.5,1,0.7,1.5,0.6c0.4,0,0.7-0.3,0.8-0.4
		c-0.2-0.1-0.5-0.2-0.7-0.4C13.9,17.7,13.3,16.9,12.8,16L12.8,16z"/>
	<path class="st3" d="M11.6,14l-0.4,0.2L11,14.4c0,0,0,0,0,0c0,0.6,0.2,1.7,1,2.9l0.7-1.5c-0.3-0.6-0.5-1.2-0.6-1.9L11.6,14L11.6,14
		z"/>
	<path class="st3" d="M15.6,15.1l-0.4,1.4c0.6,0.6,1.2,1.1,1.6,1.3c0.6,0.4,1.1,0.6,1.5,0.4c0.2-0.1,0.4-0.2,0.5-0.4
		c-0.2-0.1-0.5-0.3-0.8-0.5C17.1,16.8,16.2,16.1,15.6,15.1L15.6,15.1z"/>
	<path class="st3" d="M14.2,15.8l-0.6,1.1c0.4,0.5,0.8,1,1.3,1.4c0.5,0.4,0.9,0.6,1.3,0.5c0.4,0,0.7-0.3,0.9-0.5
		c-0.2-0.1-0.3-0.2-0.5-0.3C16,17.6,15,16.8,14.2,15.8L14.2,15.8z"/>
	<path class="st3" d="M9.5,15.5c-0.2,0.2-0.3,0.4-0.4,0.6c0.1,0.2,0.5,1,1.2,1.8l0.9-1.8c-0.2-0.6-0.3-1.2-0.4-1.6
		C10.3,14.7,9.9,15.1,9.5,15.5L9.5,15.5z"/>
	<path class="st3" d="M11.2,16.3l-0.8,1.8c0.3,0.4,0.7,0.8,1.1,1.1c0.5,0.4,1,0.6,1.4,0.5c0.4-0.1,0.6-0.3,0.8-0.4
		c-0.2-0.1-0.4-0.2-0.6-0.4C12.2,18,11.6,17.1,11.2,16.3L11.2,16.3z"/>
	<path class="st3" d="M11.1,7.9c0.2-0.2,0.4-0.3,0.6-0.3c0,0,0,0,0,0c0.5,0,0.9,0.4,1.3,0.9C13.2,8.9,13.7,9,14,9
		c-0.3-0.4-0.4-0.8-0.4-1.1c0-0.2-0.2-0.3-0.3-0.3C13.1,7.5,13,7.2,13,7c0-0.2,0.2-0.4,0.4-0.4c0,0,0.1,0,0.2,0
		c0.5,0,1.9,0.2,3.3,2.1C17,8.5,17.1,8.2,17.3,8c0.1-0.2,0.2-0.4,0.3-0.6l0,0c0-0.1,0.1-0.2,0.1-0.3c0.1-0.2,0.2-0.4,0.3-0.5
		c0.1-0.2,0.2-0.4,0.3-0.5c0-0.1,0.1-0.1,0.1-0.2c-0.2-0.3-0.7-0.9-1.6-1.4c-0.1-0.1-0.2-0.2-0.3-0.3c0-0.1,0-0.3,0.1-0.4
		c0.2-0.3,0.3-0.7,0.3-1c-0.4,0.2-1,0.5-1.6,0.6c-0.3,0.1-0.6,0.1-1,0.1c-0.7,0-1.4-0.2-2.1-0.5c-0.6-0.3-1.3-0.5-2.1-0.5
		C9.2,2.4,8.3,2.6,7.5,3c-0.1,0-0.2,0.1-0.2,0.1c-0.1,0-0.1,0-0.2,0C7,3,6.9,2.9,6.8,2.8C6.7,2.4,6.4,2.2,6.2,2
		C6,2.2,5.8,2.5,5.5,2.7C5,3,4.4,3.3,3.5,3.5c-1,0.3-1.8,1-2,1.8c-0.3,1,0.3,2,0.9,2.6H11.1L11.1,7.9z"/>
	<path class="st3" d="M30.3,10.7c-0.2,0-0.4,0-0.6,0c-0.1,0.1-0.1,0.2-0.2,0.3c-0.3,0.3-0.7,0.5-1.3,0.6c-0.1,0.2-0.2,0.4-0.4,0.6
		c-0.1,0.1-0.3,0.2-0.6,0.3c0,0.1,0,0.1-0.1,0.2c0.7,0.1,1.3,0.2,1.9,0.2c2.2,0,3.3-0.9,3.8-1.5c0.5-0.6,0.7-1.2,0.7-1.9
		c-0.2,0.2-0.5,0.4-0.8,0.6C32.3,10.4,31.5,10.7,30.3,10.7L30.3,10.7z"/>
	<path class="st4" d="M8.8,5.5c0.7-0.1,1.5-0.1,1.9-0.1c0.3,0,0.7,0,1,0l0.8,0.1L12,6.1c-0.3,0.3-0.8,0.6-1.3,0.7
		c-0.1,0-0.1,0.1-0.2,0.2c-0.2,0.2-0.4,0.5-0.9,0.6l-0.1,0C8.9,7.7,8.9,7.7,8.9,8l0,0.4H2.5L2.4,8C2.2,7,2.4,6.2,3,5.5
		c0.9-1.1,2.8-1.8,5.4-1.7c1.7,0,3-0.4,3-0.4C11.1,4.5,8.8,5.5,8.8,5.5L8.8,5.5z"/>
	<g>
		<path class="st3" d="M2.8,7.9h5.7c0-0.6,0.4-0.7,1-0.8c0.6-0.2,0.7-0.7,1.1-0.8c0.4-0.1,0.9-0.3,1.1-0.5C10,5.7,8.2,5.9,7.8,6.2
			c0.3-0.9,1.6-1.6,2.5-2C5.6,3.8,2.3,5,2.8,7.9L2.8,7.9z"/>
		<path class="st5" d="M37.1,3.1l-0.2,0.1c0,0,0,0,0,0l-0.2,0.1c0,0-0.1,0-0.1,0c0,0,0,0,0,0l-0.1,0.1c0,0-0.1,0-0.1,0.1L36,3.7
			c-0.1,0-0.1,0.1-0.2,0.1l-0.3,0.1c-0.1,0-0.2,0.1-0.3,0.1C35.1,4,35,4,35,4.1c-0.1,0-0.1,0.1-0.2,0.1l-0.3,0.1c0,0-0.1,0-0.1,0
			c-0.1,0-0.1,0-0.2,0.1l-0.5,0.1c0,0-0.1,0-0.1,0c-0.1,0-0.1,0-0.2,0l-0.5,0.1c0,0-0.1,0-0.1,0c-0.1,0-0.1,0-0.2,0l-0.8,0.1
			c-0.1,0-0.2,0-0.3,0L30.6,5l-1.1,0.1c0,0-0.1,0-0.1,0l-1.2,0l-1.4,0l-0.6,0l-0.6,0l-0.5,0c-0.1,0-0.3,0-0.4,0l-0.2,0
			c-0.1,0-0.3,0-0.4,0c-0.8,0-1.4,0.1-1.9,0.3l0,0c-0.1,0-0.1,0-0.2,0.1c0,0,0,0,0,0c0,0,0,0-0.1,0l-0.1,0.1l-0.1,0.1l-0.1,0.1
			c0,0-0.1,0-0.1,0.1l-0.1,0.1l-0.1,0.1l0,0c0,0,0,0,0,0c0,0,0,0-0.1,0c-0.1,0.1-0.2,0.2-0.3,0.3c-0.1,0.1-0.2,0.2-0.3,0.4
			c-0.1,0.1-0.2,0.3-0.3,0.4C20,7.3,19.9,7.6,19.7,8l-0.2,0.5c-0.1,0.2-0.2,0.3-0.2,0.5c-0.2,0.3-0.4,0.7-0.6,1
			c-0.5,0.7-1,1.3-1.7,1.8c-0.3,0.2-0.7,0.4-1,0.6c-0.2,0.1-0.4,0.2-0.5,0.2c-0.1,0-0.2,0.1-0.2,0.1l-0.1,0c0,0-0.1,0-0.1,0l-0.1,0
			c-0.1,0-0.2,0.1-0.3,0.1l-0.8,0.2c-0.1,0-0.2,0.1-0.3,0.1c-0.1,0-0.1,0-0.2,0.1c-0.1,0-0.3,0.1-0.4,0.1l-0.3,0.1L12,13.7l-0.5,0.2
			L11.1,14l-0.3,0.1c-0.6,0.3-1.1,0.7-1.5,1.2c-0.4,0.4-0.7,1-1.1,1.7c-0.1,0.2-0.2,0.3-0.4,0.3c-0.2,0-0.3,0-0.5-0.1
			c-0.1,0-0.2-0.2-0.2-0.4c0-0.1-0.1-0.4,0-0.7c0,0,0,0,0,0c0-0.1,0.1-0.3,0.2-0.4l0,0c0.1-0.2,0.2-0.3,0.3-0.5L8,15l0.3-0.3
			c0,0,0,0,0.1-0.1l0.3-0.3c0,0,0.1-0.1,0.1-0.1c0,0,0,0,0.1-0.1c0.1-0.1,0.2-0.2,0.4-0.3c0,0,0.1,0,0.1-0.1l0.1,0c0,0,0,0,0,0
			c0,0,0,0,0,0l0.1-0.1c0,0,0.1,0,0.1-0.1c0.1,0,0.1-0.1,0.2-0.1l0.4-0.2c0,0,0.1,0,0.1,0l0,0c0.7-0.4,1.5-0.7,2.1-0.9l0.1,0
			c0.2-0.1,0.3-0.1,0.5-0.1c0.1,0,0.1,0,0.2-0.1c0.1,0,0.2-0.1,0.3-0.1l0.5-0.2l0.2-0.1c0.1,0,0.2-0.1,0.2-0.1
			c0.7-0.2,1.2-0.5,1.7-0.9c0.1-0.1,0.3-0.2,0.4-0.3c0,0,0,0,0,0c0,0,0.1-0.1,0.1-0.1c0,0,0,0,0.1-0.1c0,0,0.1-0.1,0.1-0.1
			c0.1-0.1,0.2-0.2,0.3-0.4c0.1-0.1,0.2-0.3,0.3-0.4c0.2-0.3,0.3-0.5,0.5-0.9C17.9,8,18,7.8,18.1,7.6c0-0.1,0.1-0.2,0.1-0.3
			c0.1-0.2,0.2-0.4,0.3-0.5c0.1-0.2,0.2-0.3,0.3-0.5c0.1-0.2,0.2-0.3,0.3-0.5c0.1-0.2,0.3-0.3,0.4-0.5c0.2-0.2,0.3-0.3,0.5-0.5
			c0,0,0.1,0,0.1-0.1l0.1-0.1l0.2-0.1l0.1-0.1c0,0,0.1-0.1,0.1-0.1l0,0c0,0,0.1,0,0.1-0.1L21,4.1L21.2,4c0,0,0.1,0,0.1,0l0,0
			c0.1,0,0.2-0.1,0.3-0.1l0,0c0.4-0.1,0.8-0.2,1.2-0.3c0.4,0,0.8-0.1,1.2-0.1c0.2,0,0.3,0,0.5,0l0.2,0c0.2,0,0.3,0,0.5,0l1.1,0.1
			l0.5,0l1.3,0l1.2,0c0,0,0.1,0,0.1,0l1-0.1L31,3.6l0.3,0c0.1,0,0.2,0,0.3,0l0.5-0.1l0.3,0c0.1,0,0.1,0,0.2,0c0,0,0.1,0,0.1,0
			l0.5-0.1c0.1,0,0.1,0,0.2,0c0,0,0.1,0,0.1,0l0.5-0.1c0.1,0,0.1,0,0.2,0c0,0,0.1,0,0.1,0L34.4,3c0.1,0,0.1,0,0.2-0.1
			c0.1,0,0.1,0,0.2-0.1c0.1,0,0.2-0.1,0.3-0.1l0.2-0.1c0,0,0,0,0.1,0c0.1,0,0.1,0,0.2-0.1l0.2-0.1c0,0,0.1,0,0.1-0.1l0.1-0.1
			c0,0,0,0,0,0c0,0,0.1,0,0.1,0l0.2-0.1c0,0,0,0,0,0l0.1-0.1l0.3-0.2C37,2,37.2,2.1,37.3,2.3C37.4,2.6,37.4,2.9,37.1,3.1L37.1,3.1z
			 M36,5.2c-0.7,0.5-2,0.8-4.5,1.3c-1,0.2-2,0.3-3,0.3c-0.8,0-1.7-0.1-2.5-0.1l-0.8-1.4l0.4,0l0.6,0l0.6,0l1.4,0l1.3,0
			c0,0,0.1,0,0.1,0l1.1-0.1l0.9-0.1c0.1,0,0.2,0,0.3,0L32.3,5l0.3,0c0.1,0,0.1,0,0.2,0c0,0,0.1,0,0.1,0l0.5-0.1c0.1,0,0.1,0,0.2,0
			c0,0,0.1,0,0.1,0l0.5-0.1c0.1,0,0.1,0,0.2-0.1c0,0,0.1,0,0.1,0l0.3-0.1c0.1,0,0.2,0,0.2-0.1c0.1,0,0.1,0,0.2-0.1
			c0.1,0,0.2-0.1,0.4-0.1l0.3-0.1c0.1,0,0.1-0.1,0.2-0.1l0.3-0.1c0,0,0.1,0,0.1-0.1l0.1-0.1c0,0,0,0,0,0c0,0,0.1,0,0.1,0
			C36.8,4.3,36.7,4.8,36,5.2L36,5.2z M35.9,6.5c-0.5,0.6-1.8,1.1-4.2,1.3C31,7.9,30.3,8,29.5,8c-1.3,0-2.5-0.1-3.6-0.3l-0.4-0.9
			c0.9,0.1,2,0.2,3.1,0.2c1,0,2-0.1,3-0.3c2.5-0.5,3.8-0.9,4.5-1.3C36.1,5.8,36.2,6.2,35.9,6.5L35.9,6.5z M34.3,8
			c-0.3,0.5-1.3,1.1-4.2,1.2c-0.2,0-0.5,0-0.7,0c-1.4,0-2.8-0.2-4-0.5l-0.4-1c1.4,0.2,2.9,0.4,4.6,0.4c0.7,0,1.5,0,2.2-0.1
			c1.1-0.1,1.9-0.3,2.6-0.5C34.4,7.7,34.4,7.8,34.3,8L34.3,8z M33.2,11.7c-0.6,0.7-2.5,2.3-6.7,1.3c0,0,0,0,0.1-0.1
			c0.2-0.2,0.3-0.4,0.3-0.7c0.3-0.1,0.5-0.2,0.7-0.3c0.2-0.2,0.3-0.4,0.3-0.6c0.8-0.1,1.2-0.3,1.4-0.5c0.2-0.2,0.2-0.4,0.2-0.5
			c0,0,0.1,0,0.1,0c0.3,0,0.5,0,0.8,0c1.1,0,1.8-0.3,2.3-0.5c0.6-0.3,1-0.8,1.1-1.1c0.1,0,0.1-0.1,0.2-0.1
			C34.2,9.6,34,10.8,33.2,11.7L33.2,11.7z M25.5,14c-0.3,0.3-1.2,0.4-2.6,0.1c-0.3,0-0.6-0.1-0.8-0.2v-1.1c0.4,0.1,0.9,0.3,1.3,0.3
			c0.7,0.1,1.3,0.1,1.7,0.1c0.2,0,0.4,0,0.5,0C25.7,13.6,25.6,13.8,25.5,14L25.5,14z M24.8,15.2c-0.4,0.3-1.1,0.4-2.2,0.1
			c-0.6-0.1-1.2-0.3-1.7-0.6l0.1-1c0.5,0.2,1.1,0.5,1.8,0.6c0.6,0.1,1.1,0.1,1.5,0.1c0.3,0,0.5,0,0.7-0.1C25.1,14.8,25,15,24.8,15.2
			L24.8,15.2z M23.1,16.3c-0.3,0.2-0.9,0.4-1.9,0c-0.5-0.2-1.1-0.5-1.7-0.9l0.2-1c0.8,0.5,1.8,0.9,2.8,1.1c0.4,0.1,0.7,0.1,1,0.2
			C23.5,15.9,23.4,16.2,23.1,16.3L23.1,16.3z M21.5,17.2c-0.4,0.2-1.1,0-2.1-0.5c-0.4-0.2-0.8-0.5-1.1-0.7l0.1-1.1
			c0.9,0.7,1.9,1.2,2.7,1.6c0.3,0.1,0.5,0.2,0.7,0.2C21.9,16.9,21.7,17.1,21.5,17.2L21.5,17.2z M20.1,17.8c-0.5,0.2-1.2,0-1.9-0.6
			c-0.5-0.4-1-0.7-1.4-1.1L17,15c0.6,0.7,1.4,1.3,2.4,1.8c0.5,0.2,0.8,0.4,1.2,0.5C20.5,17.6,20.3,17.7,20.1,17.8L20.1,17.8z
			 M18.3,18.3c-0.4,0.1-0.9,0-1.5-0.4c-0.4-0.3-1-0.7-1.6-1.3l0.4-1.4c0.7,1,1.6,1.7,2.5,2.3c0.3,0.2,0.6,0.4,0.8,0.5
			C18.7,18.1,18.5,18.3,18.3,18.3L18.3,18.3z M16.3,18.8c-0.4,0-0.9-0.1-1.3-0.5c-0.5-0.4-1-0.9-1.3-1.4l0.6-1.1
			c0.7,1,1.7,1.8,2.4,2.3c0.2,0.1,0.3,0.2,0.5,0.3C17,18.5,16.7,18.8,16.3,18.8L16.3,18.8z M14.7,19.3c-0.5,0.1-1-0.2-1.5-0.6
			c-0.4-0.4-0.8-0.8-1.1-1.2l0.7-1.5c0.5,0.9,1.1,1.7,2,2.4c0.2,0.2,0.5,0.3,0.7,0.4C15.4,19,15.1,19.2,14.7,19.3L14.7,19.3z
			 M12.9,19.6c-0.4,0.1-0.9-0.1-1.4-0.5c-0.4-0.3-0.8-0.7-1.1-1.1l0.8-1.8c0.3,0.8,0.9,1.7,1.8,2.5c0.2,0.2,0.4,0.3,0.6,0.4
			C13.6,19.4,13.3,19.6,12.9,19.6L12.9,19.6z M10.8,14.5c0,0.4,0.1,0.9,0.4,1.6l-0.9,1.8c-0.7-0.8-1.1-1.6-1.2-1.8
			c0.1-0.2,0.3-0.4,0.4-0.6C9.9,15.1,10.3,14.7,10.8,14.5L10.8,14.5z M12.1,13.9c0.1,0.7,0.3,1.3,0.6,1.9L12,17.3
			c-0.8-1.2-1-2.3-1-2.9c0,0,0,0,0,0l0.3-0.1l0.4-0.2L12.1,13.9L12.1,13.9z M13.2,13.5c0.1,0.8,0.4,1.5,0.9,2.1l-0.6,1.1
			c-0.6-0.9-1-1.9-1.2-2.9l0.3-0.1l0.3-0.1C13,13.5,13.1,13.5,13.2,13.5L13.2,13.5z M14.6,13.1c0.2,0.7,0.4,1.3,0.8,1.8L15,16.4
			c-0.8-0.8-1.5-1.8-1.6-2.9c0,0,0.1,0,0.1,0c0.1,0,0.2-0.1,0.3-0.1L14.6,13.1L14.6,13.1z M15.5,12.8c0.3,0.8,0.7,1.5,1.3,2.1
			L16.6,16c-0.8-0.8-1.4-1.7-1.7-3c0,0,0.1,0,0.1,0l0.1,0c0,0,0.1,0,0.1,0l0.1,0C15.3,12.8,15.4,12.8,15.5,12.8
			C15.5,12.8,15.5,12.8,15.5,12.8L15.5,12.8z M16.5,12.3c0.5,1,1.1,1.8,1.8,2.4l-0.1,1.1c-1.1-0.9-1.9-1.9-2.4-3.1
			c0.1,0,0.2-0.1,0.3-0.1C16.2,12.5,16.3,12.4,16.5,12.3L16.5,12.3z M17.2,11.8c0.5,1,1.4,1.8,2.4,2.5l-0.2,1
			c-1.1-0.7-2.1-1.7-2.8-3.1C16.8,12.1,17,12,17.2,11.8C17.1,11.9,17.2,11.9,17.2,11.8L17.2,11.8z M17.9,11.2
			c0.2,0.2,0.6,0.7,1.2,1.3c0.4,0.4,1,0.8,1.7,1.1l-0.1,1c-1.5-0.7-2.6-1.7-3.3-2.9C17.5,11.6,17.7,11.4,17.9,11.2L17.9,11.2z
			 M18.4,10.7c0.3,0.3,1.7,1.4,3.4,2v1.1c-1.1-0.4-2-1-2.6-1.5c-0.7-0.6-1.1-1.1-1.2-1.3C18.2,11,18.3,10.8,18.4,10.7L18.4,10.7z
			 M19,9.8c0.7,0.5,2,1.3,3.5,1.8v1.1c-2.1-0.5-3.7-1.9-4-2.2c0.1-0.1,0.2-0.3,0.3-0.4C18.9,10,19,9.9,19,9.8L19,9.8z M19.4,9
			C19.4,9,19.4,9,19.4,9c0.4,0.2,2.2,1,4.1,1.6l0.1,1.1c-1.9-0.5-3.7-1.5-4.6-2.1C19.2,9.4,19.3,9.2,19.4,9L19.4,9z M19.9,8.1
			c0.9,0.4,2.5,1.1,4.3,1.6l0.3,0.9c-2.2-0.6-4.4-1.6-4.9-1.9c0-0.1,0.1-0.2,0.1-0.3L19.9,8.1L19.9,8.1z M20.3,7.2
			c0.3,0.2,1.4,0.7,2.9,1.2c0.4,0.1,0.8,0.3,1.3,0.4l0.4,1c-2-0.5-3.9-1.3-4.9-1.8C20.1,7.7,20.2,7.5,20.3,7.2L20.3,7.2z M26.5,11.1
			c-0.6,0-1.2-0.1-1.8-0.3l-0.3-0.9c1,0.3,2,0.5,3,0.5c0.2,0,0.4,0,0.6,0c0.5,0,0.9,0,1.2-0.1c0,0.1-0.1,0.2-0.2,0.3
			C28.7,10.8,28.1,11.2,26.5,11.1L26.5,11.1z M25,12c-0.4,0-0.7-0.1-1.1-0.2l-0.1-1.1c0.9,0.3,1.9,0.5,2.7,0.5c0.2,0,0.4,0,0.5,0
			c0.2,0,0.4,0,0.6,0c0,0.2-0.1,0.4-0.2,0.5C27.1,12,26.3,12.1,25,12L25,12z M23.4,12.9c-0.2,0-0.4-0.1-0.6-0.1v-1.1
			c0.7,0.2,1.5,0.4,2.2,0.5c0.4,0,0.7,0.1,1,0.1c0.3,0,0.5,0,0.7,0c0,0.2-0.1,0.4-0.2,0.5C26,13.1,25.1,13.2,23.4,12.9L23.4,12.9z
			 M27.4,10.1c-0.7,0-1.5-0.1-2.3-0.3l-0.4-1c1.3,0.3,2.9,0.6,4.6,0.6c0.2,0,0.5,0,0.7,0c0.2,0,0.4,0,0.6,0
			C30.4,9.8,29.8,10.2,27.4,10.1L27.4,10.1z M33.4,8.8c-0.4,0.5-1.4,1.3-3.3,1.2c0.4-0.2,0.6-0.4,0.7-0.7C32,9.3,32.8,9.1,33.4,8.8
			L33.4,8.8z M20.7,6.6c0.6,0.2,2,0.7,4,1.1l0.4,1c-0.7-0.2-1.3-0.3-1.8-0.5c-1.5-0.5-2.6-1-2.9-1.1c0.1-0.1,0.1-0.2,0.2-0.3
			C20.6,6.7,20.7,6.7,20.7,6.6L20.7,6.6z M21.4,6L21.4,6C21.7,6,23,6.4,24.7,6.7c0.2,0,0.4,0.1,0.6,0.1l0.4,0.8
			c-2.3-0.4-4.1-0.9-4.8-1.2c0,0,0,0,0,0c0.1-0.1,0.2-0.2,0.3-0.3c0,0,0,0,0,0c0,0,0,0,0,0l0,0L21.4,6L21.4,6z M25,5.3l0.8,1.4
			c-2-0.3-3.6-0.7-4.2-0.9l0.1-0.1l0.1-0.1c0,0,0,0,0.1,0c0,0,0,0,0,0c0,0,0.1,0,0.2-0.1l0,0c0.5-0.2,1.1-0.3,1.8-0.3
			c0.1,0,0.3,0,0.4,0l0.1,0l0.1,0C24.8,5.3,24.9,5.3,25,5.3L25,5.3z M9.4,19.4c-0.8-0.4-1.4-1.1-1.4-1.9c0.2-0.1,0.3-0.2,0.4-0.4
			c0.2-0.3,0.3-0.6,0.5-0.9c0.3,0.5,1.2,2.1,2.4,3c0,0,0,0,0,0C10.9,19.7,10.2,19.8,9.4,19.4L9.4,19.4z M9,25.4V26
			c0,0.1-0.1,0.3-0.3,0.3H5c-0.1,0-0.3-0.1-0.3-0.3v-0.6c0-0.1,0.1-0.3,0.3-0.3h3.8C8.9,25.1,9,25.2,9,25.4L9,25.4z M7.2,28.4H6.5
			l-0.8-1.9h2.5L7.2,28.4L7.2,28.4z M8,24.9c0.2-0.1,0.4-0.3,0.7-0.4l0,0.4H8L8,24.9z M5.1,24.7C5.3,24.5,6.9,23,9,22.2l-0.3,2.2
			c-0.5,0.1-0.9,0.5-1,0.6H5.2L5.1,24.7L5.1,24.7z M3.9,11c-0.1,0-0.1,0.1-0.2,0.1c-0.2,0.1-0.5,0.3-0.7,0.4L2.9,11H3.9L3.9,11z
			 M1.5,10.4V9.9c0-0.3,0.2-0.5,0.5-0.5h0.2h9.3h0.3c0.3,0,0.5,0.2,0.5,0.5v0.4c0,0.3-0.2,0.5-0.5,0.5H2C1.7,10.8,1.5,10.6,1.5,10.4
			L1.5,10.4z M2,8.8c0-0.1,0.1-0.2,0.2-0.2h9.3c0.1,0,0.2,0.1,0.2,0.2V9c0,0.1-0.1,0.2-0.2,0.2H2.2C2.1,9.2,2,9.2,2,9V8.8L2,8.8z
			 M10.8,11h1c0.4,0,0.7-0.3,0.7-0.7V9.9c0-0.4-0.3-0.6-0.6-0.7c0-0.1,0.1-0.1,0.1-0.2V8.8c0-0.2-0.2-0.4-0.4-0.4
			c0.1,0,0.1-0.1,0.2-0.1c0.2,0,0.4,0.2,0.8,0.7c0.7,0.8,2.1,0.7,2.6,0.5c0,0,0.1,0,0.1-0.1c0,0,0-0.1,0-0.1c-0.7-0.4-0.9-1.2-1-1.5
			c-0.1-0.2-0.2-0.4-0.3-0.5c0.2,0,0.4,0.1,0.7,0.2c0.5,0.2,1.4,0.8,2.2,2.1c0,0.1-0.1,0.1-0.1,0.2c0,0-0.1,0.1-0.1,0.1
			c0,0,0,0-0.1,0.1c0,0-0.1,0.1-0.1,0.1c0,0,0,0,0,0c-0.1,0.1-0.2,0.2-0.3,0.3c-0.4,0.4-1,0.7-1.6,0.9c-0.1,0-0.2,0.1-0.2,0.1
			l-0.1,0l-0.6,0.2c-0.1,0-0.2,0.1-0.3,0.1c-0.1,0-0.1,0-0.2,0.1c-0.2,0-0.3,0.1-0.5,0.2l-0.1,0c-0.4,0.2-1,0.3-1.5,0.6V11L10.8,11z
			 M3.1,11.8c0.2-0.2,0.5-0.4,0.7-0.5C4,11.2,4.1,11.1,4.2,11h3.2c-0.3,0.4-0.8,0.7-1.5,1c-0.7,0.4-1.7,0.8-2.5,1.6L3.1,11.8
			L3.1,11.8z M3.4,13.9C4.3,13,5.2,12.6,6,12.2c0.7-0.4,1.3-0.6,1.6-1.2h3v0.3c-1.1,0.8-1.9,1.3-2.8,1.7c-1.3,0.7-2.5,1.3-4.1,3
			L3.4,13.9L3.4,13.9z M7,16.2c-1.2,0.5-2.5,1.7-2.9,2.1l-0.3-1.9c1.6-1.8,2.8-2.5,4.1-3.1c0.8-0.4,1.7-0.9,2.7-1.6v0.9
			c-0.2,0.1-0.3,0.2-0.5,0.2l0,0c0,0-0.1,0-0.1,0l-0.4,0.2c-0.1,0-0.1,0.1-0.2,0.1c0,0-0.1,0-0.1,0.1l-0.1,0.1c0,0,0,0,0,0
			c0,0,0,0,0,0l-0.1,0c0,0-0.1,0-0.1,0.1c-0.1,0.1-0.3,0.2-0.4,0.3c0,0,0,0-0.1,0.1c0,0-0.1,0.1-0.2,0.1l-0.3,0.3l0,0
			c0,0,0,0.1-0.1,0.1l-0.3,0.3l-0.3,0.4l0,0c-0.1,0.1-0.2,0.3-0.3,0.5C7.1,15.9,7,16,7,16.2L7,16.2z M7.9,17.6c0,0.2,0,0.3,0.1,0.5
			c-1.6,0.4-3.1,1.8-3.5,2.3l-0.3-1.8c0.2-0.2,1.5-1.5,2.8-2.1c0,0.3,0,0.5,0,0.6c0.1,0.2,0.2,0.4,0.3,0.5c0.1,0.1,0.3,0.1,0.4,0.1
			C7.7,17.6,7.8,17.6,7.9,17.6L7.9,17.6z M4.8,22.6l-0.3-2c0.3-0.3,1.9-1.9,3.5-2.3c0.2,0.5,0.6,0.9,1.1,1.2
			C7.4,20.4,6,21.5,4.8,22.6L4.8,22.6z M9,21.9c-1.2,0.5-2.2,1.2-2.9,1.7c-0.4,0.3-0.7,0.6-0.9,0.7c-0.1,0.1-0.1,0.1-0.2,0.2
			l-0.3-1.7c0,0,0,0,0.1-0.1c1.2-1.1,2.7-2.1,4.4-3.1L9,21.9L9,21.9z M1.1,5.2c0.3-0.9,1.1-1.7,2.3-2.1c1.7-0.5,2.5-1.1,2.5-1.8
			c0.3,0.1,1,0.6,1.2,1.2c0,0,0,0,0.1,0.1c0,0,0.1,0,0.1,0c1.2-0.7,3.2-1.1,5.1-0.2c0.9,0.4,1.8,0.5,2.8,0.4
			c0.9-0.2,1.6-0.6,2.1-0.9c0.1,0.3,0.2,1.2-0.4,1.9c0,0,0,0.1,0,0.1c0,0,0,0.1,0.1,0.1c1.3,0.6,1.8,1.5,1.9,1.8
			c-0.1,0.1-0.2,0.3-0.2,0.4c-0.1,0.2-0.2,0.4-0.3,0.5c-0.1,0.1-0.2,0.3-0.3,0.5c0,0.1-0.1,0.2-0.1,0.3c-0.1,0.2-0.2,0.4-0.3,0.7
			c-0.2,0.3-0.3,0.6-0.5,0.9c-0.1,0.1-0.2,0.3-0.3,0.4c0,0,0,0,0,0C15.2,6.8,13.6,7,13.5,7c0,0-0.1,0-0.1,0.1c0,0,0,0.1,0.1,0.1
			c0,0,0.4,0.2,0.5,0.6c0.1,0.3,0.3,1,0.9,1.5c-0.5,0.1-1.6,0.1-2.1-0.5c-0.4-0.5-0.7-0.8-1-0.8c-0.2,0-0.3,0.1-0.4,0.3h-9
			C1.2,7.3,0.9,6.2,1.1,5.2L1.1,5.2z M37.5,2.3c-0.1-0.4-0.6-0.5-0.6-0.6l0,0L36.4,2L36.3,2c0,0,0,0,0,0l-0.2,0.1c0,0,0,0-0.1,0
			c0,0,0,0,0,0l-0.1,0.1c0,0-0.1,0-0.1,0l-0.2,0.1c0,0-0.1,0-0.2,0.1c0,0-0.1,0-0.1,0L35,2.5c-0.1,0-0.2,0.1-0.3,0.1
			c-0.1,0-0.1,0-0.2,0.1c-0.1,0-0.1,0-0.2,0.1l-0.3,0.1c0,0-0.1,0-0.1,0c-0.1,0-0.1,0-0.2,0L33.3,3c0,0-0.1,0-0.1,0
			c-0.1,0-0.1,0-0.2,0l-0.5,0.1c0,0-0.1,0-0.1,0c-0.1,0-0.1,0-0.2,0l-0.8,0.1c-0.1,0-0.2,0-0.2,0l-0.9,0.1l-1,0.1c0,0-0.1,0-0.1,0
			l-1.2,0l-1.3,0l-0.5,0l-1.1-0.1c-0.2,0-0.3,0-0.5,0l-0.2,0c-0.2,0-0.3,0-0.5,0c-0.4,0-0.8,0-1.2,0.1c-0.4,0.1-0.8,0.1-1.2,0.3l0,0
			c-0.1,0-0.2,0.1-0.3,0.1l0,0c0,0-0.1,0-0.1,0l-0.2,0.1L20.7,4c0,0-0.1,0-0.1,0.1l0,0c0,0-0.1,0.1-0.1,0.1l-0.1,0.1l-0.2,0.2
			l-0.1,0.1c0,0-0.1,0-0.1,0.1c-0.2,0.1-0.3,0.3-0.5,0.5c-0.1,0.2-0.3,0.3-0.4,0.5c-0.2-0.3-0.7-1.1-1.9-1.7c0.6-1,0.3-2.1,0.3-2.1
			c0,0,0-0.1-0.1-0.1c0,0-0.1,0-0.1,0c-0.6,0.4-2.6,1.6-4.8,0.6c-1.9-0.9-3.9-0.5-5.2,0.2C6.9,1.5,5.9,1.1,5.9,1.1c0,0-0.1,0-0.1,0
			c0,0,0,0.1,0,0.1C5.8,1.9,5,2.4,3.3,2.9C2.1,3.3,1.2,4.1,0.9,5.2C0.7,5.9,0.8,7,2,8.4C1.9,8.5,1.8,8.6,1.8,8.8V9
			c0,0.1,0,0.2,0.1,0.2C1.6,9.3,1.3,9.6,1.3,9.9v0.4C1.3,10.7,1.6,11,2,11h0.7l2.2,13.7c0,0,0,0,0,0c0,0,0,0,0,0l0,0.2h0
			c-0.3,0-0.5,0.2-0.5,0.5V26c0,0.3,0.2,0.5,0.5,0.5h0.5l0.9,2.1h1l1.1-2.1h0.3c0.3,0,0.5-0.2,0.5-0.5v-0.6c0-0.2-0.1-0.4-0.3-0.4
			l0.7-5.3c0.3,0.1,0.6,0.2,0.9,0.2c0.4,0,0.9-0.1,1.2-0.4c0.4,0.3,0.8,0.4,1.2,0.4c0.1,0,0.1,0,0.2,0c0.5-0.1,0.8-0.4,0.9-0.5
			c0.2,0.1,0.5,0.2,0.7,0.2c0.1,0,0.1,0,0.2,0c0.5-0.1,0.9-0.4,1-0.5c0.1,0,0.3,0.1,0.4,0.1c0.1,0,0.1,0,0.2,0
			c0.6-0.1,0.9-0.4,1.1-0.6c0.2,0.1,0.5,0.1,0.7,0.1c0.1,0,0.2,0,0.3,0c0.3-0.1,0.5-0.3,0.7-0.6c0.3,0.1,0.5,0.1,0.6,0.1
			c0.2,0,0.3,0,0.4-0.1c0.3-0.1,0.5-0.3,0.6-0.6c0.2,0,0.3,0.1,0.4,0.1c0.2,0,0.3,0,0.4-0.1c0.2-0.1,0.4-0.3,0.5-0.6
			c0.1,0,0.1,0,0.2,0c0.4,0,0.7-0.1,0.9-0.2c0.3-0.2,0.5-0.5,0.5-0.8c0.5,0,0.9-0.1,1.1-0.3c0.3-0.2,0.4-0.6,0.4-1
			c0.2-0.1,0.3-0.1,0.4-0.2c0.2-0.2,0.2-0.6,0.2-0.9c0.2,0,0.3-0.1,0.4-0.1c1,0.3,1.9,0.4,2.8,0.4c0.6,0,1.1-0.1,1.6-0.2
			c1.1-0.2,2-0.8,2.7-1.5c0.9-1,1.1-2.3,0.7-3.3c0.2-0.1,0.3-0.3,0.4-0.4c0.2-0.3,0.2-0.5,0.2-0.6c0.7-0.2,1.2-0.5,1.5-0.9
			c0.3-0.4,0.3-0.9,0.2-1.3C37,4.8,37.1,4.2,37,3.4l0,0c0,0,0,0,0,0l0.1-0.1l0.1-0.1C37.5,3.1,37.6,2.7,37.5,2.3L37.5,2.3z"/>
	</g>
</g>
</svg>
